<?xml version="1.0" encoding="UTF-8"?>
<svg version="1.1" xmlns="http://www.w3.org/2000/svg" width="612" height="408">
<path d="M0 0 C0.99 0.33 1.98 0.66 3 1 C8.75431688 15.3954148 8.17068277 29.53497467 3 44 C-0.20236002 51.02767154 -4.9282661 56.42683858 -10.2421875 61.96875 C-12.21812558 63.80434968 -12.21812558 63.80434968 -12 66 C-10.02 66.99 -10.02 66.99 -8 68 C-8 68.66 -8 69.32 -8 70 C-6.02 70.99 -6.02 70.99 -4 72 C-4 72.66 -4 73.32 -4 74 C-3.34 74 -2.68 74 -2 74 C-2 74.66 -2 75.32 -2 76 C-5.27066566 76.08706892 -8.54103365 76.14041241 -11.8125 76.1875 C-12.74126953 76.21263672 -13.67003906 76.23777344 -14.62695312 76.26367188 C-15.51962891 76.27333984 -16.41230469 76.28300781 -17.33203125 76.29296875 C-18.15421143 76.3086792 -18.9763916 76.32438965 -19.82348633 76.34057617 C-22 76 -22 76 -23.50732422 74.43286133 C-23.99990723 73.96001709 -24.49249023 73.48717285 -25 73 C-27.19859381 73.05979799 -27.19859381 73.05979799 -29.55078125 73.78125 C-43.81183274 77.13131756 -58.17626726 76.29253235 -71 69 C-74.60428913 66.57791771 -77.84761145 63.98243369 -81 61 C-81.72243896 60.34547852 -81.72243896 60.34547852 -82.45947266 59.67773438 C-86.34748614 56.02331969 -88.90492237 52.27733505 -91.25 47.5 C-91.76530273 46.46202271 -91.76530273 46.46202271 -92.29101562 45.40307617 C-96.07445661 37.3485711 -97.38508705 28.90513805 -97 20 C-96 19 -96 19 -93.05859375 18.90234375 C-91.86363281 18.91394531 -90.66867188 18.92554688 -89.4375 18.9375 C-87.64119141 18.95103516 -87.64119141 18.95103516 -85.80859375 18.96484375 C-84.88175781 18.97644531 -83.95492187 18.98804688 -83 19 C-82.92523438 19.87140625 -82.85046875 20.7428125 -82.7734375 21.640625 C-81.78486286 30.59594819 -79.56437487 37.16305447 -75 45 C-70.01795861 40.86596566 -65.43340038 36.49524962 -60.91796875 31.85546875 C-57.90759295 28.94319073 -55.3968362 28.46946208 -51.19287109 28.53295898 C-48.47726124 29.1113337 -47.32233562 30.09688265 -45.2890625 31.97265625 C-44.5976416 32.60768066 -43.9062207 33.24270508 -43.19384766 33.89697266 C-39.40888801 37.52524357 -35.68656536 41.20940488 -32 44.9375 C-31.22527344 45.71673828 -30.45054687 46.49597656 -29.65234375 47.29882812 C-27.76589243 49.1969242 -25.88183755 51.09733149 -24 53 C-16.68682026 48.98394875 -12.76988507 42.7265215 -10 35 C-9.18631442 31.57776502 -8.88078825 28.43151547 -8.90234375 24.91796875 C-8.90556641 23.98662109 -8.90878906 23.05527344 -8.91210938 22.09570312 C-8.92048828 21.13599609 -8.92886719 20.17628906 -8.9375 19.1875 C-8.94201172 18.20845703 -8.94652344 17.22941406 -8.95117188 16.22070312 C-8.96291316 13.81373889 -8.97933581 11.40690143 -9 9 C-8.360625 8.731875 -7.72125 8.46375 -7.0625 8.1875 C-4.66868314 7.11332248 -4.66868314 7.11332248 -4 4 C-2.70644173 2.62804426 -1.37701298 1.28817344 0 0 Z M-54 45 C-57.3 48.3 -60.6 51.6 -64 55 C-61.48654115 58.77018827 -59.04374682 59.19295011 -54.875 60.25 C-54.19937012 60.42547363 -53.52374023 60.60094727 -52.82763672 60.78173828 C-47.78260494 62.00326918 -43.98479157 62.39574164 -39 61 C-38.67 60.34 -38.34 59.68 -38 59 C-38.66 59 -39.32 59 -40 59 C-40.66 57.68 -41.32 56.36 -42 55 C-42.66 55 -43.32 55 -44 55 C-44.66 53.68 -45.32 52.36 -46 51 C-46.66 51 -47.32 51 -48 51 C-48.33 50.01 -48.66 49.02 -49 48 C-50.65 47.01 -52.3 46.02 -54 45 Z " fill="#323234" transform="translate(220,153)"/>
<path d="M0 0 C5.97873264 0.11935764 5.97873264 0.11935764 7.08984375 1.23046875 C7.16189886 2.91655841 7.17370443 4.60547534 7.15234375 6.29296875 C7.14332031 7.21207031 7.13429688 8.13117188 7.125 9.078125 C7.11339844 9.78839844 7.10179688 10.49867187 7.08984375 11.23046875 C8.98669922 11.17826172 8.98669922 11.17826172 10.921875 11.125 C12.58201798 11.09686198 14.24217531 11.06956184 15.90234375 11.04296875 C17.15241211 11.00526367 17.15241211 11.00526367 18.42773438 10.96679688 C19.63139648 10.95229492 19.63139648 10.95229492 20.859375 10.9375 C21.96696167 10.91393433 21.96696167 10.91393433 23.09692383 10.88989258 C25.65113966 11.32639032 26.52798146 12.20139579 28.08984375 14.23046875 C28.234375 16.39453125 28.234375 16.39453125 27.90234375 18.85546875 C27.78632813 19.73203125 27.6703125 20.60859375 27.55078125 21.51171875 C26.88094735 25.46260343 26.03220694 29.33536758 25.08984375 33.23046875 C26.54390625 32.73546875 26.54390625 32.73546875 28.02734375 32.23046875 C29.3767436 31.87833453 30.73143813 31.54608344 32.08984375 31.23046875 C32.74210937 31.05902344 33.394375 30.88757813 34.06640625 30.7109375 C39.45329548 29.95435193 42.53911813 31.93689638 46.71459961 35.0715332 C49.61910992 37.37076947 52.39786058 39.68016891 55.08984375 42.23046875 C55.08984375 42.89046875 55.08984375 43.55046875 55.08984375 44.23046875 C55.72921875 44.53984375 56.36859375 44.84921875 57.02734375 45.16796875 C59.08984375 46.23046875 59.08984375 46.23046875 60.08984375 47.23046875 C62.41802339 47.59807606 64.75168225 47.93288456 67.08984375 48.23046875 C67.08984375 47.57046875 67.08984375 46.91046875 67.08984375 46.23046875 C68.453125 44.88842773 68.453125 44.88842773 70.40234375 43.2890625 C75.92969324 38.58910946 80.98626502 33.44291184 86.08984375 28.29296875 C87.06486761 27.31291565 88.04012655 26.33309635 89.015625 25.35351562 C91.37600993 22.98144562 93.7340128 20.60706015 96.08984375 18.23046875 C95.30854304 15.73494391 95.30854304 15.73494391 94.08984375 13.23046875 C93.09984375 12.90046875 92.10984375 12.57046875 91.08984375 12.23046875 C90.59484375 10.74546875 90.59484375 10.74546875 90.08984375 9.23046875 C96.81378774 6.57939832 103.64360966 4.397931 110.58984375 2.41796875 C111.3792334 2.18698486 112.16862305 1.95600098 112.98193359 1.71801758 C118.73460904 0.11205718 118.73460904 0.11205718 122.08984375 1.23046875 C120.62710954 11.93424142 118.90096411 22.58108103 117.08984375 33.23046875 C112.81274676 33.23046875 111.53053999 32.52426624 108.08984375 30.23046875 C107.47109375 30.72546875 106.85234375 31.22046875 106.21484375 31.73046875 C104.08984375 33.23046875 104.08984375 33.23046875 102.08984375 33.23046875 C101.42984375 34.55046875 100.76984375 35.87046875 100.08984375 37.23046875 C99.42984375 37.23046875 98.76984375 37.23046875 98.08984375 37.23046875 C97.42984375 38.55046875 96.76984375 39.87046875 96.08984375 41.23046875 C95.42984375 41.23046875 94.76984375 41.23046875 94.08984375 41.23046875 C93.83332031 41.82472656 93.57679688 42.41898438 93.3125 43.03125 C91.9727481 45.44109128 90.65251945 46.67918863 88.52734375 48.41796875 C85.32332019 51.09569963 82.48996997 53.91881941 79.65234375 56.98046875 C74.85417611 61.80332679 70.57009979 64.07443993 63.734375 64.3125 C58.48526776 63.98717845 55.26802613 62.51967616 51.08984375 59.23046875 C50.44015625 58.76125 49.79046875 58.29203125 49.12109375 57.80859375 C45.09612213 54.89499489 41.51221576 51.85415676 38.08984375 48.23046875 C37.42984375 47.57046875 36.76984375 46.91046875 36.08984375 46.23046875 C34.0941087 46.35795853 34.0941087 46.35795853 31.90234375 46.98046875 C30.69384766 47.27824219 30.69384766 47.27824219 29.4609375 47.58203125 C27.45047675 48.13184424 25.45547025 48.73768811 23.46484375 49.35546875 C19.72782537 50.32432537 16.92830498 50.72804706 13.08984375 50.23046875 C10.08984375 48.23046875 10.08984375 48.23046875 8.08984375 45.23046875 C7.95445296 37.78397533 10.95200314 30.31020138 13.08984375 23.23046875 C11.76984375 23.23046875 10.44984375 23.23046875 9.08984375 23.23046875 C9.15171875 24.32359375 9.21359375 25.41671875 9.27734375 26.54296875 C9.08984375 30.23046875 9.08984375 30.23046875 7.8671875 31.9453125 C5.58933589 33.59237443 4.24908738 33.57116072 1.46484375 33.48046875 C0.66820313 33.465 -0.1284375 33.44953125 -0.94921875 33.43359375 C-2.91015625 33.23046875 -2.91015625 33.23046875 -3.91015625 32.23046875 C-3.98195589 30.71118837 -3.99407632 29.18879393 -3.97265625 27.66796875 C-3.96363281 26.84167969 -3.95460938 26.01539063 -3.9453125 25.1640625 C-3.93371094 24.52597656 -3.92210938 23.88789063 -3.91015625 23.23046875 C-4.85890625 23.25109375 -5.80765625 23.27171875 -6.78515625 23.29296875 C-9.91015625 23.23046875 -9.91015625 23.23046875 -11.91015625 22.23046875 C-11.93703776 20.58472309 -11.95649748 18.93885462 -11.97265625 17.29296875 C-11.98425781 16.37644531 -11.99585937 15.45992187 -12.0078125 14.515625 C-11.91015625 12.23046875 -11.91015625 12.23046875 -10.91015625 11.23046875 C-8.57718192 11.18953938 -6.243104 11.18805152 -3.91015625 11.23046875 C-3.93335937 10.60398437 -3.9565625 9.9775 -3.98046875 9.33203125 C-4.00753906 8.10613281 -4.00753906 8.10613281 -4.03515625 6.85546875 C-4.05835937 6.04335937 -4.0815625 5.23125 -4.10546875 4.39453125 C-3.84306396 1.48708619 -2.95151495 0.35611326 0 0 Z " fill="#BEEA16" transform="translate(113.91015625,115.76953125)"/>
<path d="M0 0 C6.584563 4.64355642 12.36620503 9.8767257 14 18 C15.07933833 27.04266386 15.17996691 35.15327619 9.8984375 42.921875 C8.72012156 45.05349552 8.72012156 45.05349552 9.71875 47.6328125 C10.92119581 50.12326634 10.92119581 50.12326634 13.125 52.125 C15 54 15 54 15 57 C12.72942623 57.05398987 10.45848712 57.09278742 8.1875 57.125 C6.29064453 57.15980469 6.29064453 57.15980469 4.35546875 57.1953125 C1 57 1 57 -2 55 C-4.09618393 55.47333186 -6.1911568 55.95313957 -8.27734375 56.46875 C-17.3072512 58.23068316 -25.98294868 57.67318718 -34 53 C-40.33232656 48.46750283 -45.76625073 42.96606684 -47.68359375 35.17578125 C-49.04264971 25.83017418 -48.91421031 16.4393418 -43.265625 8.58984375 C-32.30181378 -4.47748939 -15.29905646 -8.3083927 0 0 Z M-31.8359375 17.28125 C-34.67524968 21.47352301 -34.5502594 26.14199562 -34 31 C-32.68459983 35.51673553 -30.7656587 38.8829162 -26.75 41.4375 C-22.92043187 43.32320925 -19.22781832 43.703311 -15 44 C-14.03375833 42.32171592 -14.03375833 42.32171592 -14 40 C-15.60118397 37.94720004 -17.26776336 35.94348501 -19 34 C-19 33.34 -19 32.68 -19 32 C-13.33333333 32 -7.66666667 32 -2 32 C-1.34 31.67 -0.68 31.34 0 31 C1.46616854 25.36089022 0.81140615 22.06053106 -2 17 C-6.07633548 12.01781219 -10.57516157 9.4281048 -17 8.625 C-23.92416792 9.49052099 -27.52629092 12.02670765 -31.8359375 17.28125 Z " fill="#BCEA11" transform="translate(489,174)"/>
<path d="M0 0 C4.62 0 9.24 0 14 0 C14 9.57 14 19.14 14 29 C18.66995665 24.68117664 18.66995665 24.68117664 20.421875 21.796875 C22.44993366 18.67127872 24.20444126 16.41309819 27.97802734 15.54492188 C32.97836299 14.92489326 37.96849126 14.90944416 43 15 C43 15.99 43 16.98 43 18 C42.34 18 41.68 18 41 18 C40.73058594 18.58523437 40.46117187 19.17046875 40.18359375 19.7734375 C38.99937503 22.00117569 37.71029447 23.721441 36.0625 25.625 C35.55847656 26.21539062 35.05445313 26.80578125 34.53515625 27.4140625 C33 29 33 29 30 31 C29.15837961 33.69571315 29.15837961 33.69571315 30 37 C31.48473675 39.31258996 33.15304305 41.37152723 34.91015625 43.484375 C37.19254065 46.23176856 39.32360963 49.0586903 41.4375 51.9375 C42.11683594 52.85402344 42.79617188 53.77054688 43.49609375 54.71484375 C45 57 45 57 45 59 C34.1801787 60.69143608 34.1801787 60.69143608 29 59 C25.36610888 56.04713554 23.20322238 52.08139432 20.91796875 48.0625 C20.28503906 47.051875 19.65210938 46.04125 19 45 C18.01 45 17.02 45 16 45 C14.20160542 46.79839458 14.66077708 49.56537562 14.5 52 C14.11111111 57.88888889 14.11111111 57.88888889 13 59 C8.71 59 4.42 59 0 59 C0 39.53 0 20.06 0 0 Z " fill="#383839" transform="translate(336,171)"/>
<path d="M0 0 C3.6278099 2.61914313 4.85276899 5.97490842 5.671875 10.20703125 C5.75408026 12.5964642 5.77932972 14.98807972 5.76953125 17.37890625 C5.7681163 18.06132385 5.76670135 18.74374146 5.76524353 19.44683838 C5.75966584 21.61694809 5.74711754 23.78695295 5.734375 25.95703125 C5.72935711 27.43229017 5.72479471 28.90755072 5.72070312 30.3828125 C5.70970375 33.99091923 5.69245453 37.598965 5.671875 41.20703125 C1.381875 41.20703125 -2.908125 41.20703125 -7.328125 41.20703125 C-7.658125 40.21703125 -7.988125 39.22703125 -8.328125 38.20703125 C-9.36646484 38.93792969 -9.36646484 38.93792969 -10.42578125 39.68359375 C-16.32857037 42.7819622 -23.72781642 42.01402357 -29.953125 40.08203125 C-33.43808448 37.33074745 -34.93273381 34.65259897 -35.64453125 30.25 C-35.94748384 25.13889658 -34.7348497 22.16619779 -31.328125 18.20703125 C-26.82030794 14.65541781 -22.52463201 14.67171376 -17.015625 14.51953125 C-15.76168945 14.46829102 -15.76168945 14.46829102 -14.48242188 14.41601562 C-12.43144728 14.33397664 -10.37980962 14.26881615 -8.328125 14.20703125 C-8.988125 12.55703125 -9.648125 10.90703125 -10.328125 9.20703125 C-18.06700389 8.85347841 -24.11088844 9.32013662 -31.328125 12.20703125 C-31.328125 8.24703125 -31.328125 4.28703125 -31.328125 0.20703125 C-21.50244482 -3.93009725 -9.70025186 -5.16009638 0 0 Z M-21.328125 25.20703125 C-21.36876332 26.8732024 -21.370846 28.5409122 -21.328125 30.20703125 C-18.72198369 31.91104672 -17.42836568 32.21316843 -14.265625 32.01953125 C-10.60255213 31.02534866 -10.60255213 31.02534866 -8.328125 28.20703125 C-8.07763864 25.08154108 -8.07763864 25.08154108 -8.328125 22.20703125 C-12.45491668 21.95692266 -18.24999673 22.12890298 -21.328125 25.20703125 Z " fill="#373739" transform="translate(323.328125,188.79296875)"/>
<path d="M0 0 C6.67520882 -0.02464296 13.3503914 -0.04283267 20.02563477 -0.05493164 C22.29842591 -0.05997325 24.5712138 -0.06680637 26.84399414 -0.07543945 C30.10303551 -0.08751261 33.36203417 -0.09322987 36.62109375 -0.09765625 C37.64400009 -0.10281754 38.66690643 -0.10797882 39.72080994 -0.11329651 C40.66170975 -0.11337204 41.60260956 -0.11344757 42.57202148 -0.11352539 C43.40475082 -0.115746 44.23748016 -0.11796661 45.09544373 -0.12025452 C47 0 47 0 48 1 C48.14310287 4.6691577 48.04221662 8.32715441 48 12 C42.39 12 36.78 12 31 12 C31 27.51 31 43.02 31 59 C26.05 59 21.1 59 16 59 C16 43.49 16 27.98 16 12 C10.72 12 5.44 12 0 12 C0 8.04 0 4.08 0 0 Z " fill="#383839" transform="translate(243,171)"/>
<path d="M0 0 C1.79244141 0.01740234 1.79244141 0.01740234 3.62109375 0.03515625 C5.41740234 0.04869141 5.41740234 0.04869141 7.25 0.0625 C8.17683594 0.07410156 9.10367187 0.08570313 10.05859375 0.09765625 C10.05859375 3.39765625 10.05859375 6.69765625 10.05859375 10.09765625 C12.25515625 10.06671875 12.25515625 10.06671875 14.49609375 10.03515625 C16.01691893 10.01373618 17.53931337 10.02585661 19.05859375 10.09765625 C20.05859375 11.09765625 20.05859375 11.09765625 20.15625 13.3828125 C20.12369792 15.95442708 20.09114583 18.52604167 20.05859375 21.09765625 C16.75859375 21.09765625 13.45859375 21.09765625 10.05859375 21.09765625 C10.38859375 28.02765625 10.71859375 34.95765625 11.05859375 42.09765625 C14.02859375 42.42765625 16.99859375 42.75765625 20.05859375 43.09765625 C20.05859375 46.39765625 20.05859375 49.69765625 20.05859375 53.09765625 C14.89195661 55.68097482 10.74474598 55.64076196 5.05859375 55.09765625 C0.89749515 53.56461992 -0.48076196 52.78862268 -2.94140625 49.09765625 C-3.16845703 46.18676758 -3.16845703 46.18676758 -3.13671875 42.6796875 C-3.12705078 40.79926758 -3.12705078 40.79926758 -3.1171875 38.88085938 C-3.10042969 37.57052734 -3.08367187 36.26019531 -3.06640625 34.91015625 C-3.05637264 33.57487638 -3.04724745 32.23958936 -3.0390625 30.90429688 C-3.01545917 27.6352361 -2.98253219 24.36653597 -2.94140625 21.09765625 C-5.58140625 21.09765625 -8.22140625 21.09765625 -10.94140625 21.09765625 C-10.94140625 17.79765625 -10.94140625 14.49765625 -10.94140625 11.09765625 C-8.30140625 11.09765625 -5.66140625 11.09765625 -2.94140625 11.09765625 C-3.02519531 10.38738281 -3.10898437 9.67710937 -3.1953125 8.9453125 C-3.34806641 7.56666016 -3.34806641 7.56666016 -3.50390625 6.16015625 C-3.60832031 5.24363281 -3.71273438 4.32710937 -3.8203125 3.3828125 C-3.86027344 2.62871094 -3.90023438 1.87460938 -3.94140625 1.09765625 C-2.94140625 0.09765625 -2.94140625 0.09765625 0 0 Z " fill="#38383A" transform="translate(390.94140625,175.90234375)"/>
<path d="M0 0 C4.95 0 9.9 0 15 0 C15 19.47 15 38.94 15 59 C10.05 59 5.1 59 0 59 C0 39.53 0 20.06 0 0 Z " fill="#BCEB0D" transform="translate(419,171)"/>
<path d="M0 0 C0.99 0.33 1.98 0.66 3 1 C8.742016 15.36464204 8.21390542 29.57007826 3 44 C0.60702156 48.9046686 -2.00330002 53.25235254 -6 57 C-5.67 54.69 -5.34 52.38 -5 50 C-5.5775 50.515625 -6.155 51.03125 -6.75 51.5625 C-9 53 -9 53 -11.25 52.6875 C-11.8275 52.460625 -12.405 52.23375 -13 52 C-13 51.01 -13 50.02 -13 49 C-13.78375 49.515625 -14.5675 50.03125 -15.375 50.5625 C-16.24125 51.036875 -17.1075 51.51125 -18 52 C-18.66 51.67 -19.32 51.34 -20 51 C-19.52949219 50.43152344 -19.05898437 49.86304688 -18.57421875 49.27734375 C-12.41510603 41.63902384 -8.84086452 34.93908341 -8.90234375 24.91796875 C-8.90556641 23.98662109 -8.90878906 23.05527344 -8.91210938 22.09570312 C-8.92048828 21.13599609 -8.92886719 20.17628906 -8.9375 19.1875 C-8.94201172 18.20845703 -8.94652344 17.22941406 -8.95117188 16.22070312 C-8.96291316 13.81373889 -8.97933581 11.40690143 -9 9 C-8.0409375 8.5978125 -8.0409375 8.5978125 -7.0625 8.1875 C-4.66868314 7.11332248 -4.66868314 7.11332248 -4 4 C-2.70644173 2.62804426 -1.37701298 1.28817344 0 0 Z " fill="#363638" transform="translate(220,153)"/>
<path d="M0 0 C0.89589844 0.00322266 1.79179687 0.00644531 2.71484375 0.00976562 C4.12056641 0.02233398 4.12056641 0.02233398 5.5546875 0.03515625 C6.49957031 0.03966797 7.44445312 0.04417969 8.41796875 0.04882812 C10.75527137 0.06063268 13.09244811 0.07709866 15.4296875 0.09765625 C15.14817663 1.41237193 14.85415411 2.72441392 14.5546875 4.03515625 C14.39226562 4.76605469 14.22984375 5.49695313 14.0625 6.25 C13.4296875 8.09765625 13.4296875 8.09765625 11.4296875 9.09765625 C8.08122639 9.08884451 4.74443035 8.96568861 1.3984375 8.83984375 C0.41875 8.92492187 -0.5609375 9.01 -1.5703125 9.09765625 C-2.5603125 10.58265625 -2.5603125 10.58265625 -3.5703125 12.09765625 C-4.2303125 12.09765625 -4.8903125 12.09765625 -5.5703125 12.09765625 C-5.5703125 13.08765625 -5.5703125 14.07765625 -5.5703125 15.09765625 C-6.5603125 15.09765625 -7.5503125 15.09765625 -8.5703125 15.09765625 C-10.59400347 21.16872916 -11.84480846 26.57206158 -12.32421875 32.9609375 C-12.5703125 35.09765625 -12.5703125 35.09765625 -13.5703125 37.09765625 C-15.6328125 37.72265625 -15.6328125 37.72265625 -17.5703125 38.09765625 C-16.9103125 38.42765625 -16.2503125 38.75765625 -15.5703125 39.09765625 C-15.5703125 40.41765625 -15.5703125 41.73765625 -15.5703125 43.09765625 C-16.8903125 42.76765625 -18.2103125 42.43765625 -19.5703125 42.09765625 C-19.9003125 40.11765625 -20.2303125 38.13765625 -20.5703125 36.09765625 C-21.2303125 36.09765625 -21.8903125 36.09765625 -22.5703125 36.09765625 C-22.5703125 35.43765625 -22.5703125 34.77765625 -22.5703125 34.09765625 C-23.2303125 34.09765625 -23.8903125 34.09765625 -24.5703125 34.09765625 C-25.0168583 23.39709572 -24.76719394 15.62835087 -17.8203125 7.16015625 C-14.21975403 3.34037559 -11.709235 1.91988385 -6.5703125 1.09765625 C-4.16971433 -0.10264283 -2.67670601 -0.01694118 0 0 Z " fill="#BCEB0E" transform="translate(465.5703125,172.90234375)"/>
<path d="M0 0 C0.99 0.33 1.98 0.66 3 1 C2.34 1.969375 1.68 2.93875 1 3.9375 C-1.86948095 9.02058053 -1.89749336 13.63588581 -0.41015625 19.2109375 C1.31979757 23.49994743 3.23075867 25.48837652 7.4375 27.4375 C10.57460846 28.61262149 13.66562718 29.56975835 17 30 C17 28.02 17 26.04 17 24 C16.01 23.67 15.02 23.34 14 23 C12.8125 20.4375 12.8125 20.4375 12 18 C13 17 13 17 15.94140625 16.90234375 C17.13636719 16.91394531 18.33132813 16.92554688 19.5625 16.9375 C21.35880859 16.95103516 21.35880859 16.95103516 23.19140625 16.96484375 C24.11824219 16.97644531 25.04507813 16.98804688 26 17 C26.66 18.32 27.32 19.64 28 21 C26.02 20.67 24.04 20.34 22 20 C21.67 20.66 21.34 21.32 21 22 C20.34 22 19.68 22 19 22 C19.495 22.99 19.495 22.99 20 24 C20.23076923 29.53846154 20.23076923 29.53846154 19 32 C16.4375 32.625 16.4375 32.625 14 33 C14.33 33.99 14.66 34.98 15 36 C14.67 37.32 14.34 38.64 14 40 C18.29 40 22.58 40 27 40 C23.53808615 43.46191385 19.61731004 43.2039411 14.875 43.3125 C5.35222239 43.20586195 -1.41628502 40.33327483 -8.30859375 33.7890625 C-12.74105315 29.10068743 -14.48409576 25.44880305 -15 19 C-14.67 19.66 -14.34 20.32 -14 21 C-13.34 21 -12.68 21 -12 21 C-11.731875 21.969375 -11.46375 22.93875 -11.1875 23.9375 C-10.795625 24.948125 -10.40375 25.95875 -10 27 C-9.01 27.33 -8.02 27.66 -7 28 C-7 26.68 -7 25.36 -7 24 C-7.99 23.67 -8.98 23.34 -10 23 C-10 22.67 -10 22.34 -10 22 C-8.35 22 -6.7 22 -5 22 C-4.95101563 21.2265625 -4.90203125 20.453125 -4.8515625 19.65625 C-3.70666667 3.70666667 -3.70666667 3.70666667 0 0 Z " fill="#BEE91A" transform="translate(457,188)"/>
<path d="M0 0 C2.98452792 3.16008838 4.03872547 5.23913986 4.2265625 9.6171875 C4.04675217 14.27842459 3.63282483 16.62791459 0.625 20.3125 C-3.19566966 22.88410458 -7.31737681 23.68289253 -11.875 23.25 C-15.25 21.5 -15.25 21.5 -17.875 19.25 C-18.68324219 18.60224609 -18.68324219 18.60224609 -19.5078125 17.94140625 C-21.92791339 14.94739572 -21.39572735 11.68368475 -21.29296875 7.984375 C-20.6303954 3.64978296 -19.17466827 2.1097125 -15.875 -0.75 C-10.68685318 -3.97506424 -5.02775436 -3.06037222 0 0 Z " fill="#C0E821" transform="translate(169.875,120.75)"/>
<path d="M0 0 C2.48739143 3.73108715 2.08519694 5.22637603 1.6875 9.625 C1.57664063 10.86894531 1.46578125 12.11289063 1.3515625 13.39453125 C1.23554688 14.58433594 1.11953125 15.77414063 1 17 C0.92523438 17.95261719 0.85046875 18.90523437 0.7734375 19.88671875 C0.59549987 21.93300148 0.30973976 23.96948379 0 26 C-0.66 26.33 -1.32 26.66 -2 27 C-2 26.01 -2 25.02 -2 24 C-4.97 23.34 -7.94 22.68 -11 22 C-11 23.32 -11 24.64 -11 26 C-11.639375 26.12375 -12.27875 26.2475 -12.9375 26.375 C-13.618125 26.58125 -14.29875 26.7875 -15 27 C-15.33 27.66 -15.66 28.32 -16 29 C-16.66 29 -17.32 29 -18 29 C-18 29.66 -18 30.32 -18 31 C-18.66 31 -19.32 31 -20 31 C-20 31.99 -20 32.98 -20 34 C-20.99 34 -21.98 34 -23 34 C-23.66 31.69 -24.32 29.38 -25 27 C-26.65 28.32 -28.3 29.64 -30 31 C-30 26.23282198 -26.35714268 23.4039407 -23.1875 20.125 C-22.795625 19.75375 -22.40375 19.3825 -22 19 C-21.67 19.99 -21.34 20.98 -21 22 C-18.13705156 17.09208838 -16.96437149 12.14324679 -15.74609375 6.609375 C-15 4 -15 4 -13 2 C-8.60138741 0.47740333 -4.66044128 -0.54191178 0 0 Z M-21 28 C-21.66 28.66 -22.32 29.32 -23 30 C-22.01 30 -21.02 30 -20 30 C-20.33 29.34 -20.66 28.68 -21 28 Z " fill="#BCEB0C" transform="translate(230,120)"/>
<path d="M0 0 C-1.46273421 10.70377267 -3.18887964 21.35061228 -5 32 C-9.27709699 32 -10.55930376 31.29379749 -14 29 C-14.61875 29.495 -15.2375 29.99 -15.875 30.5 C-18 32 -18 32 -20 32 C-20.66 33.32 -21.32 34.64 -22 36 C-22.66 36 -23.32 36 -24 36 C-24.66 37.32 -25.32 38.64 -26 40 C-26.66 40 -27.32 40 -28 40 C-28.33 40.99 -28.66 41.98 -29 43 C-30.5625 41.1875 -30.5625 41.1875 -32 39 C-31.67 38.01 -31.34 37.02 -31 36 C-29.35 36.33 -27.7 36.66 -26 37 C-26 36.01 -26 35.02 -26 34 C-25.34 34 -24.68 34 -24 34 C-24 33.34 -24 32.68 -24 32 C-23.34 32 -22.68 32 -22 32 C-21.67 31.01 -21.34 30.02 -21 29 C-19.68 29 -18.36 29 -17 29 C-17 27.68 -17 26.36 -17 25 C-9.90178571 25.66964286 -9.90178571 25.66964286 -7 29 C-6.63467856 26.14686976 -6.28248687 23.29310096 -5.9375 20.4375 C-5.83373047 19.63763672 -5.72996094 18.83777344 -5.62304688 18.01367188 C-5.03939281 13.08280136 -5.06317517 8.88066085 -6 4 C-7.39664108 4.11562606 -8.79231199 4.242992 -10.1875 4.375 C-10.96480469 4.44460937 -11.74210937 4.51421875 -12.54296875 4.5859375 C-15.45229824 5.07622196 -17.45995828 5.44869935 -20 7 C-20.93614783 9.55421803 -21.55550358 11.73761963 -22.0625 14.375 C-23.04996896 19.30762005 -23.9398757 22.70800732 -28 26 C-28 25.01 -28 24.02 -28 23 C-28.66 23 -29.32 23 -30 23 C-30.2475 23.7425 -30.495 24.485 -30.75 25.25 C-32.12495599 28.27490317 -33.36212327 29.98280015 -36 32 C-37.32 31.67 -38.64 31.34 -40 31 C-35.38 26.38 -30.76 21.76 -26 17 C-26.66 15.35 -27.32 13.7 -28 12 C-28.99 11.67 -29.98 11.34 -31 11 C-31.33 10.01 -31.66 9.02 -32 8 C-25.27605601 5.34892957 -18.44623409 3.16746225 -11.5 1.1875 C-10.71061035 0.95651611 -9.9212207 0.72553223 -9.10791016 0.48754883 C-3.35523471 -1.11841157 -3.35523471 -1.11841157 0 0 Z " fill="#CCE757" transform="translate(236,117)"/>
<path d="M0 0 C4.95 0 9.9 0 15 0 C15 19.47 15 38.94 15 59 C10.05 59 5.1 59 0 59 C0 39.53 0 20.06 0 0 Z M2 2 C2 20.15 2 38.3 2 57 C5.63 57 9.26 57 13 57 C13 38.85 13 20.7 13 2 C9.37 2 5.74 2 2 2 Z " fill="#D0E864" transform="translate(419,171)"/>
<path d="M0 0 C1.98 0 3.96 0 6 0 C6 0.66 6 1.32 6 2 C8.31 2 10.62 2 13 2 C13.66 3.32 14.32 4.64 15 6 C16.32 6 17.64 6 19 6 C18.67 7.32 18.34 8.64 18 10 C17.01 10 16.02 10 15 10 C15 10.66 15 11.32 15 12 C1.1512605 12.40336134 1.1512605 12.40336134 -3 10 C-4.375 6.875 -4.375 6.875 -5 4 C-3.35 3.34 -1.7 2.68 0 2 C0 1.34 0 0.68 0 0 Z " fill="#BCEB0D" transform="translate(169,165)"/>
<path d="M0 0 C0 0.99 0 1.98 0 3 C0.33 2.67 0.66 2.34 1 2 C2.69141656 2.08963062 4.37959602 2.24577676 6.0625 2.4375 C7.44115234 2.59025391 7.44115234 2.59025391 8.84765625 2.74609375 C9.55792969 2.82988281 10.26820313 2.91367188 11 3 C10.67 5.31 10.34 7.62 10 10 C7.525 9.505 7.525 9.505 5 9 C5 9.99 5 10.98 5 12 C-4.70080863 12.32884097 -4.70080863 12.32884097 -8 10 C-9.04293651 7.32440372 -9.49353061 4.85464563 -10 2 C-9.34 2 -8.68 2 -8 2 C-8 1.34 -8 0.68 -8 0 C-5.13822943 -1.43088528 -3.06624227 -0.59991697 0 0 Z " fill="#333335" transform="translate(300,218)"/>
<path d="M0 0 C0.99 0.99 1.98 1.98 3 3 C3.99 2.34 4.98 1.68 6 1 C8.3381615 1.29758419 10.67182036 1.63239269 13 2 C15.32158065 1.65340705 15.32158065 1.65340705 17 1 C17.33 2.32 17.66 3.64 18 5 C16.88625 5.350625 15.7725 5.70125 14.625 6.0625 C12.66071157 6.80933041 12.66071157 6.80933041 11 8 C9.68998504 11.50104532 9.68998504 11.50104532 9 15 C6 17 6 17 2.8125 16.625 C1.884375 16.41875 0.95625 16.2125 0 16 C0.61454696 12.00544473 2.70646737 9.25533664 5 6 C4.34 6 3.68 6 3 6 C2.34 7.32 1.68 8.64 1 10 C0.01 10 -0.98 10 -2 10 C-2.25 3.375 -2.25 3.375 0 0 Z " fill="#BCEB0B" transform="translate(153,124)"/>
<path d="M0 0 C0.8146875 0.00257813 1.629375 0.00515625 2.46875 0.0078125 C3.2834375 0.00523437 4.098125 0.00265625 4.9375 0 C6.96875 0.1328125 6.96875 0.1328125 7.96875 1.1328125 C8.44262785 7.41169403 8.44262785 7.41169403 6.53125 10.3203125 C6.015625 10.9184375 5.5 11.5165625 4.96875 12.1328125 C4.39921397 13.99808461 4.39921397 13.99808461 3.96875 16.1328125 C3.79214844 16.91140625 3.61554688 17.69 3.43359375 18.4921875 C3.25957031 19.28109375 3.08554688 20.07 2.90625 20.8828125 C2.72964844 21.68203125 2.55304688 22.48125 2.37109375 23.3046875 C2.23832031 23.90796875 2.10554688 24.51125 1.96875 25.1328125 C2.95875 24.8028125 3.94875 24.4728125 4.96875 24.1328125 C4.96875 25.1228125 4.96875 26.1128125 4.96875 27.1328125 C6.61541203 27.0192496 8.26111082 26.89163869 9.90625 26.7578125 C11.28103516 26.65339844 11.28103516 26.65339844 12.68359375 26.546875 C13.43769531 26.41023438 14.19179687 26.27359375 14.96875 26.1328125 C15.29875 25.4728125 15.62875 24.8128125 15.96875 24.1328125 C18.93875 24.1328125 21.90875 24.1328125 24.96875 24.1328125 C19.29281778 27.91676732 11.76975027 30.19963607 4.96875 29.1328125 C1.96875 27.1328125 1.96875 27.1328125 -0.03125 24.1328125 C-0.16664079 16.68631908 2.83090939 9.21254513 4.96875 2.1328125 C3.64875 2.1328125 2.32875 2.1328125 0.96875 2.1328125 C1.030625 3.2465625 1.0925 4.3603125 1.15625 5.5078125 C1.094375 6.7040625 1.0325 7.9003125 0.96875 9.1328125 C-0.02125 9.7928125 -1.01125 10.4528125 -2.03125 11.1328125 C-2.22531478 9.48774032 -2.41132935 7.84171656 -2.59375 6.1953125 C-2.69816406 5.27878906 -2.80257812 4.36226562 -2.91015625 3.41796875 C-2.95011719 2.66386719 -2.99007812 1.90976563 -3.03125 1.1328125 C-2.03125 0.1328125 -2.03125 0.1328125 0 0 Z " fill="#C6E748" transform="translate(122.03125,136.8671875)"/>
<path d="M0 0 C-0.56581795 2.58831615 -1.15167887 5.16918198 -1.75 7.75 C-1.98589844 8.84441406 -1.98589844 8.84441406 -2.2265625 9.9609375 C-3.27596372 14.40071187 -4.29725458 17.04402676 -8 20 C-8 19.01 -8 18.02 -8 17 C-8.66 17 -9.32 17 -10 17 C-10.2475 17.7425 -10.495 18.485 -10.75 19.25 C-12.12495599 22.27490317 -13.36212327 23.98280015 -16 26 C-17.32 25.67 -18.64 25.34 -20 25 C-15.38 20.38 -10.76 15.76 -6 11 C-6.66 9.35 -7.32 7.7 -8 6 C-8.99 5.67 -9.98 5.34 -11 5 C-11.33 4.01 -11.66 3.02 -12 2 C-7.85797918 -0.00825252 -4.56038309 -0.08594362 0 0 Z " fill="#C1E82A" transform="translate(216,123)"/>
<path d="M0 0 C4.03630268 1.52724966 5.78985046 4.03756731 8.25 7.5 C8.95640625 8.4796875 9.6628125 9.459375 10.390625 10.46875 C12 13 12 13 12 15 C6.72 15 1.44 15 -4 15 C-4.33 14.34 -4.66 13.68 -5 13 C-3.68 13 -2.36 13 -1 13 C-2.57894208 10.63158688 -3.9754262 8.93254772 -6 7 C-5.195625 6.21625 -4.39125 5.4325 -3.5625 4.625 C-1.01309583 2.28017144 -1.01309583 2.28017144 0 0 Z " fill="#444446" transform="translate(369,215)"/>
<path d="M0 0 C0.66 0.33 1.32 0.66 2 1 C1.67 1.66 1.34 2.32 1 3 C1.66 3 2.32 3 3 3 C3 4.32 3 5.64 3 7 C7.41522109 5.73025028 7.41522109 5.73025028 11 3 C13.3828125 2.8046875 13.3828125 2.8046875 16.125 2.875 C17.03507812 2.89304688 17.94515625 2.91109375 18.8828125 2.9296875 C19.58148438 2.95289063 20.28015625 2.97609375 21 3 C17.71536341 5.18975773 14.79303725 5.99806563 11 7 C11 8.98 11 10.96 11 13 C10.34 13 9.68 13 9 13 C8.67 13.99 8.34 14.98 8 16 C7.67 15.01 7.34 14.02 7 13 C7.33 12.34 7.66 11.68 8 11 C5.36 11 2.72 11 0 11 C0 11.66 0 12.32 0 13 C-0.66 13 -1.32 13 -2 13 C-1.34 15.31 -0.68 17.62 0 20 C-2 19 -2 19 -3.125 16.9375 C-4.41684633 12.60058731 -5.12369369 8.31090051 -3.1015625 4.15234375 C-2 2.5 -2 2.5 0 0 Z " fill="#464648" transform="translate(292,207)"/>
<path d="M0 0 C1.07765625 0.01804687 2.1553125 0.03609375 3.265625 0.0546875 C4.49539062 0.08949219 4.49539062 0.08949219 5.75 0.125 C6.08 1.115 6.41 2.105 6.75 3.125 C7.41 3.455 8.07 3.785 8.75 4.125 C4.19302478 5.96948997 1.52279299 5.97349653 -3.25 5.125 C-4.24 5.785 -5.23 6.445 -6.25 7.125 C-6.91 6.135 -7.57 5.145 -8.25 4.125 C-8.91 7.095 -9.57 10.065 -10.25 13.125 C-6.25 11.625 -6.25 11.625 -5.25 9.125 C-4.59 9.125 -3.93 9.125 -3.25 9.125 C-4.6197164 13.12000618 -6.50722422 15.92509492 -9.25 19.125 C-11.54930415 17.32923739 -12.20128633 16.47280511 -12.61328125 13.53125 C-12.59652344 12.5721875 -12.57976562 11.613125 -12.5625 10.625 C-12.55669922 9.18640625 -12.55669922 9.18640625 -12.55078125 7.71875 C-12.25 5.125 -12.25 5.125 -10.25 2.125 C-6.89439476 -0.15741617 -3.98369989 -0.08660217 0 0 Z " fill="#BDE911" transform="translate(161.25,120.875)"/>
<path d="M0 0 C5.97873264 0.11935764 5.97873264 0.11935764 7.08984375 1.23046875 C7.23241564 4.56665106 7.13212532 7.89022481 7.08984375 11.23046875 C13.02984375 11.23046875 18.96984375 11.23046875 25.08984375 11.23046875 C25.08984375 11.56046875 25.08984375 11.89046875 25.08984375 12.23046875 C21.94447607 12.42641551 18.79853761 12.61080885 15.65234375 12.79296875 C14.75451172 12.84904297 13.85667969 12.90511719 12.93164062 12.96289062 C12.07763672 13.01123047 11.22363281 13.05957031 10.34375 13.109375 C9.55299072 13.15650635 8.76223145 13.2036377 7.94750977 13.25219727 C6.08984375 13.23046875 6.08984375 13.23046875 5.08984375 12.23046875 C5.01778864 10.54437909 5.00598307 8.85546216 5.02734375 7.16796875 C5.03636719 6.24886719 5.04539062 5.32976562 5.0546875 4.3828125 C5.06628906 3.67253906 5.07789062 2.96226563 5.08984375 2.23046875 C2.77984375 2.56046875 0.46984375 2.89046875 -1.91015625 3.23046875 C-1.89855469 3.86855469 -1.88695313 4.50664063 -1.875 5.1640625 C-1.86597656 5.99035156 -1.85695313 6.81664063 -1.84765625 7.66796875 C-1.83605469 8.49167969 -1.82445313 9.31539062 -1.8125 10.1640625 C-1.91015625 12.23046875 -1.91015625 12.23046875 -2.91015625 13.23046875 C-5.58074476 13.37162036 -8.23447863 13.27293982 -10.91015625 13.23046875 C-10.91015625 15.54046875 -10.91015625 17.85046875 -10.91015625 20.23046875 C-8.60015625 20.89046875 -6.29015625 21.55046875 -3.91015625 22.23046875 C-3.91015625 22.56046875 -3.91015625 22.89046875 -3.91015625 23.23046875 C-9.66015625 23.35546875 -9.66015625 23.35546875 -11.91015625 22.23046875 C-11.93703776 20.58472309 -11.95649748 18.93885462 -11.97265625 17.29296875 C-11.98425781 16.37644531 -11.99585937 15.45992187 -12.0078125 14.515625 C-11.91015625 12.23046875 -11.91015625 12.23046875 -10.91015625 11.23046875 C-8.57718192 11.18953938 -6.243104 11.18805152 -3.91015625 11.23046875 C-3.93335937 10.60398437 -3.9565625 9.9775 -3.98046875 9.33203125 C-4.00753906 8.10613281 -4.00753906 8.10613281 -4.03515625 6.85546875 C-4.05835937 6.04335937 -4.0815625 5.23125 -4.10546875 4.39453125 C-3.84306396 1.48708619 -2.95151495 0.35611326 0 0 Z " fill="#D1EA5F" transform="translate(113.91015625,115.76953125)"/>
<path d="M0 0 C1.95825873 -0.02694851 3.91662226 -0.04637218 5.875 -0.0625 C6.96554687 -0.07410156 8.05609375 -0.08570313 9.1796875 -0.09765625 C12 0 12 0 14 1 C13.67 3.31 13.34 5.62 13 8 C9.98509443 9.00496852 7.95818308 9.10335303 4.8125 9.0625 C3.46091797 9.04896484 3.46091797 9.04896484 2.08203125 9.03515625 C1.39496094 9.02355469 0.70789063 9.01195312 0 9 C0.66 6.36 1.32 3.72 2 1 C1.34 0.67 0.68 0.34 0 0 Z " fill="#29292B" transform="translate(301,187)"/>
<path d="M0 0 C1.9453125 1.62109375 1.9453125 1.62109375 4.7578125 4.43359375 C4.7578125 4.76359375 4.7578125 5.09359375 4.7578125 5.43359375 C3.1078125 5.43359375 1.4578125 5.43359375 -0.2421875 5.43359375 C-0.2421875 4.44359375 -0.2421875 3.45359375 -0.2421875 2.43359375 C-2.7171875 1.93859375 -2.7171875 1.93859375 -5.2421875 1.43359375 C-5.2421875 0.44359375 -5.2421875 -0.54640625 -5.2421875 -1.56640625 C-9.34629505 -1.62436757 -13.45029766 -1.65998938 -17.5546875 -1.69140625 C-19.30555664 -1.71654297 -19.30555664 -1.71654297 -21.09179688 -1.7421875 C-22.21005859 -1.74863281 -23.32832031 -1.75507813 -24.48046875 -1.76171875 C-25.51212158 -1.77219238 -26.54377441 -1.78266602 -27.60668945 -1.79345703 C-30.47406342 -1.7593814 -30.47406342 -1.7593814 -33.2421875 0.43359375 C-35.4296875 0.05859375 -35.4296875 0.05859375 -37.2421875 -0.56640625 C-26.01187525 -8.05328108 -11.10436663 -7.75758017 0 0 Z " fill="#C9E855" transform="translate(491.2421875,175.56640625)"/>
<path d="M0 0 C2.37531394 -0.0543965 4.74935883 -0.09385864 7.125 -0.125 C7.79015625 -0.14175781 8.4553125 -0.15851563 9.140625 -0.17578125 C13.49516056 -0.21847278 16.95600114 0.40003783 21 2 C19.625 3.5 19.625 3.5 18 5 C17.34 5 16.68 5 16 5 C16 5.66 16 6.32 16 7 C16.66 7.33 17.32 7.66 18 8 C17.690625 8.721875 17.38125 9.44375 17.0625 10.1875 C16.07439461 12.80307309 15.4712246 15.25118982 15 18 C12.03 18 9.06 18 6 18 C6 17.67 6 17.34 6 17 C8.64 17 11.28 17 14 17 C13.34 15.35 12.68 13.7 12 12 C9.69 11.67 7.38 11.34 5 11 C5 10.67 5 10.34 5 10 C7.64 9.67 10.28 9.34 13 9 C12.79375 8.401875 12.5875 7.80375 12.375 7.1875 C12 5 12 5 14 2 C7.07 1.505 7.07 1.505 0 1 C0 0.67 0 0.34 0 0 Z " fill="#4F4F50" transform="translate(301,186)"/>
<path d="M0 0 C1.15941038 3.47823115 0.70820884 5.45895578 0 9 C0.969375 8.67 1.93875 8.34 2.9375 8 C7.34714638 6.80220873 11.48121624 5.97334432 16 7 C19.31015159 9.01421971 22.16198638 11.36997319 25 14 C24.01 14.495 24.01 14.495 23 15 C20.875 14.0625 20.875 14.0625 19 13 C19 12.34 19 11.68 19 11 C14.71 10.34 10.42 9.68 6 9 C6.33 10.65 6.66 12.3 7 14 C5.68 14 4.36 14 3 14 C3 13.34 3 12.68 3 12 C1.35 11.67 -0.3 11.34 -2 11 C-2 7.7 -2 4.4 -2 1 C-1.34 0.67 -0.68 0.34 0 0 Z " fill="#BBE621" transform="translate(139,140)"/>
<path d="M0 0 C1.79244141 0.01740234 1.79244141 0.01740234 3.62109375 0.03515625 C5.41740234 0.04869141 5.41740234 0.04869141 7.25 0.0625 C8.17683594 0.07410156 9.10367187 0.08570313 10.05859375 0.09765625 C10.71859375 1.41765625 11.37859375 2.73765625 12.05859375 4.09765625 C9.08859375 3.60265625 9.08859375 3.60265625 6.05859375 3.09765625 C5.72859375 3.75765625 5.39859375 4.41765625 5.05859375 5.09765625 C4.39859375 5.09765625 3.73859375 5.09765625 3.05859375 5.09765625 C3.38859375 5.75765625 3.71859375 6.41765625 4.05859375 7.09765625 C4.09858575 9.09725637 4.10206174 11.09812867 4.05859375 13.09765625 C3.06859375 13.09765625 2.07859375 13.09765625 1.05859375 13.09765625 C1.05859375 11.11765625 1.05859375 9.13765625 1.05859375 7.09765625 C0.06859375 6.76765625 -0.92140625 6.43765625 -1.94140625 6.09765625 C-3.12890625 3.53515625 -3.12890625 3.53515625 -3.94140625 1.09765625 C-2.94140625 0.09765625 -2.94140625 0.09765625 0 0 Z " fill="#C1E62F" transform="translate(472.94140625,204.90234375)"/>
<path d="M0 0 C6.6752034 -0.02526945 13.35039457 -0.04283268 20.02563477 -0.05493164 C22.29842591 -0.05997325 24.5712138 -0.06680637 26.84399414 -0.07543945 C30.10303551 -0.08751261 33.36203417 -0.09322987 36.62109375 -0.09765625 C37.64400009 -0.10281754 38.66690643 -0.10797882 39.72080994 -0.11329651 C40.66170975 -0.11337204 41.60260956 -0.11344757 42.57202148 -0.11352539 C43.40475082 -0.115746 44.23748016 -0.11796661 45.09544373 -0.12025452 C47 0 47 0 48 1 C48.1875 4.4375 48.1875 4.4375 48 8 C47.34 8.66 46.68 9.32 46 10 C45 7 45 7 45 1 C30.15 1 15.3 1 0 1 C0 0.67 0 0.34 0 0 Z " fill="#686868" transform="translate(243,171)"/>
<path d="M0 0 C0.33 0 0.66 0 1 0 C1 3 1 6 1 9 C1.66 9.33 2.32 9.66 3 10 C2.01 10.33 1.02 10.66 0 11 C0.33 11.99 0.66 12.98 1 14 C0.01 14.33 -0.98 14.66 -2 15 C-1.67 15.99 -1.34 16.98 -1 18 C-4.13498292 19.85776765 -6.37471432 20.20140476 -10 20 C-10 19.01 -10 18.02 -10 17 C-8.35 17.33 -6.7 17.66 -5 18 C-5.33 17.01 -5.66 16.02 -6 15 C-5.0625 12.8125 -5.0625 12.8125 -4 11 C-4.66 10.67 -5.32 10.34 -6 10 C-5.195625 9.649375 -4.39125 9.29875 -3.5625 8.9375 C-0.6132233 7.14332716 -0.6132233 7.14332716 -0.1875 3.3125 C-0.0946875 1.6728125 -0.0946875 1.6728125 0 0 Z " fill="#4D4D4F" transform="translate(315,210)"/>
<path d="M0 0 C2.4375 0.8125 2.4375 0.8125 5 2 C5.33 2.99 5.66 3.98 6 5 C5.360625 5.556875 4.72125 6.11375 4.0625 6.6875 C1.80319013 9.22066561 1.36850953 10.68341424 1 14 C-0.32 13.34 -1.64 12.68 -3 12 C-2.14285714 3.42857143 -2.14285714 3.42857143 0 0 Z " fill="#3F3F41" transform="translate(364,193)"/>
<path d="M0 0 C1.65 0 3.3 0 5 0 C3.27813706 3.32893501 1.26724991 4.53374611 -2.125 5.8125 C-8.17505155 7.61569126 -13.43293438 7.30972736 -19.0625 4.4375 C-19.701875 3.963125 -20.34125 3.48875 -21 3 C-17.75432383 1.37716192 -14.36160376 2.45274766 -10.875 2.9375 C-10.12089844 3.03740234 -9.36679688 3.13730469 -8.58984375 3.24023438 C-6.72582247 3.48798404 -4.86280712 3.74328057 -3 4 C-3 3.34 -3 2.68 -3 2 C-2.01 2 -1.02 2 0 2 C0 1.34 0 0.68 0 0 Z " fill="#C6E643" transform="translate(187,173)"/>
<path d="M0 0 C0.99 0.33 1.98 0.66 3 1 C2.34 1.969375 1.68 2.93875 1 3.9375 C-1.46237632 8.30821797 -1.84893998 12.07778069 -1 17 C0.10308512 20.13333229 1.44637175 23.06613952 3 26 C2.34 26 1.68 26 1 26 C1 25.34 1 24.68 1 24 C0.360625 23.690625 -0.27875 23.38125 -0.9375 23.0625 C-3 22 -3 22 -4 21 C-4.50065894 14.37500144 -4.0655437 8.31138352 -2 2 C-1.34 1.34 -0.68 0.68 0 0 Z " fill="#C7E44C" transform="translate(457,188)"/>
<path d="M0 0 C2.5850867 -0.13526616 5.16308752 -0.23417653 7.75 -0.3125 C8.47960937 -0.35439453 9.20921875 -0.39628906 9.9609375 -0.43945312 C12.109375 -0.48828125 12.109375 -0.48828125 16 0 C18.515625 2.51953125 18.515625 2.51953125 20 5 C17 5 17 5 14.375 3.9375 C8.65027527 2.34729869 3.83211114 3.19644248 -1.5625 5.5625 C-2.366875 6.036875 -3.17125 6.51125 -4 7 C-4 6.01 -4 5.02 -4 4 C-3.34 4 -2.68 4 -2 4 C-1.34 2.68 -0.68 1.36 0 0 Z " fill="#C8E552" transform="translate(464,181)"/>
<path d="M0 0 C1.37432457 3.81756824 0.67975039 7.07255329 0 11 C3.12197478 9.6910428 3.12197478 9.6910428 5 7 C5.66 7 6.32 7 7 7 C5.6302836 10.99500618 3.74277578 13.80009492 1 17 C-1.29930415 15.20423739 -1.95128633 14.34780511 -2.36328125 11.40625 C-2.34652344 10.4471875 -2.32976562 9.488125 -2.3125 8.5 C-2.30669922 7.06140625 -2.30669922 7.06140625 -2.30078125 5.59375 C-2 3 -2 3 0 0 Z " fill="#BEE725" transform="translate(151,123)"/>
<path d="M0 0 C3.3 0.33 6.6 0.66 10 1 C10 4.3 10 7.6 10 11 C8.68 11.33 7.36 11.66 6 12 C6 11.01 6 10.02 6 9 C5.01 8.67 4.02 8.34 3 8 C3.66 8 4.32 8 5 8 C5.144375 7.360625 5.28875 6.72125 5.4375 6.0625 C6 4 6 4 7 3 C4.69 2.67 2.38 2.34 0 2 C0 1.34 0 0.68 0 0 Z " fill="#646463" transform="translate(401,218)"/>
<path d="M0 0 C0.99 0 1.98 0 3 0 C2.1875 2.4375 2.1875 2.4375 1 5 C0.01 5.33 -0.98 5.66 -2 6 C-3.20882096 8.00016466 -3.20882096 8.00016466 -4 10 C-4.66 10 -5.32 10 -6 10 C-6.33 10.99 -6.66 11.98 -7 13 C-8.5625 11.1875 -8.5625 11.1875 -10 9 C-9.67 8.01 -9.34 7.02 -9 6 C-7.35 6.33 -5.7 6.66 -4 7 C-4 6.01 -4 5.02 -4 4 C-3.34 4 -2.68 4 -2 4 C-2 3.34 -2 2.68 -2 2 C-1.34 2 -0.68 2 0 2 C0 1.34 0 0.68 0 0 Z " fill="#C5E54A" transform="translate(214,147)"/>
<path d="M0 0 C2.31 0 4.62 0 7 0 C6.67 2.31 6.34 4.62 6 7 C3.36 6.34 0.72 5.68 -2 5 C-1.34 4.67 -0.68 4.34 0 4 C0 2.68 0 1.36 0 0 Z M-1 6 C-0.34 6 0.32 6 1 6 C1 6.99 1 7.98 1 9 C-0.32 8.67 -1.64 8.34 -3 8 C-2.34 7.34 -1.68 6.68 -1 6 Z " fill="#2E2E30" transform="translate(304,221)"/>
<path d="M0 0 C4.13452395 3.56424479 6.6374488 7.72074475 7.23901367 13.16186523 C7.29358321 15.42785898 7.26320313 17.67222945 7.1875 19.9375 C7.17396484 20.71673828 7.16042969 21.49597656 7.14648438 22.29882812 C7.11150224 24.19952404 7.05770959 26.09985834 7 28 C6.67 28 6.34 28 6 28 C5.67 22.39 5.34 16.78 5 11 C4.34 11 3.68 11 3 11 C2.67 8.69 2.34 6.38 2 4 C1.34 4 0.68 4 0 4 C0 2.68 0 1.36 0 0 Z " fill="#CAE55D" transform="translate(496,181)"/>
<path d="M0 0 C0 0.99 0 1.98 0 3 C-0.928125 3.3403125 -0.928125 3.3403125 -1.875 3.6875 C-4.64128237 5.39608617 -4.90241056 6.99992221 -6 10 C-7.25 11.8125 -7.25 11.8125 -9 13 C-12.1875 13.1875 -12.1875 13.1875 -15 13 C-15.33 12.01 -15.66 11.02 -16 10 C-13.69 10 -11.38 10 -9 10 C-9 9.34 -9 8.68 -9 8 C-7.28515625 6.30859375 -7.28515625 6.30859375 -5.0625 4.4375 C-4.33160156 3.81746094 -3.60070312 3.19742188 -2.84765625 2.55859375 C-1.93306641 1.78708984 -1.93306641 1.78708984 -1 1 C-0.67 0.67 -0.34 0.34 0 0 Z " fill="#C8E552" transform="translate(190,154)"/>
<path d="M0 0 C-1.7965512 4.24639375 -4.81623183 8.90811592 -9 11 C-9.75 8.75 -9.75 8.75 -10 6 C-7.45904516 2.70616966 -4.31055821 0 0 0 Z " fill="#424243" transform="translate(164,199)"/>
<path d="M0 0 C0 0.99 0 1.98 0 3 C-2.64 3 -5.28 3 -8 3 C-8 5.31 -8 7.62 -8 10 C-5.69 10.66 -3.38 11.32 -1 12 C-1 12.33 -1 12.66 -1 13 C-6.75 13.125 -6.75 13.125 -9 12 C-9.02688151 10.35425434 -9.04634123 8.70838587 -9.0625 7.0625 C-9.07410156 6.14597656 -9.08570312 5.22945312 -9.09765625 4.28515625 C-9 2 -9 2 -8 1 C-5.34536879 0.54540142 -2.67810862 0.29756762 0 0 Z " fill="#C6E54D" transform="translate(111,126)"/>
<path d="M0 0 C5.61 0 11.22 0 17 0 C13.46948375 3.53051625 11.96925029 3.67614027 7.23046875 4.078125 C4.15236358 3.97031046 2.33469439 2.95813078 0 1 C0 0.67 0 0.34 0 0 Z " fill="#C5E345" transform="translate(153,140)"/>
<path d="M0 0 C2.5 2.0625 2.5 2.0625 4 4 C3.46503906 3.83628906 2.93007812 3.67257813 2.37890625 3.50390625 C-0.48897943 2.89642308 -3.13244574 2.90482281 -6.0625 2.9375 C-7.62677734 2.95103516 -7.62677734 2.95103516 -9.22265625 2.96484375 C-10.13917969 2.97644531 -11.05570313 2.98804687 -12 3 C-12.99 3 -13.98 3 -15 3 C-10.08980282 -0.89429432 -6.11201878 -1.64790849 0 0 Z " fill="#D0E75F" transform="translate(167,119)"/>
<path d="M0 0 C2.31 0 4.62 0 7 0 C7.33 1.32 7.66 2.64 8 4 C5.35261084 5.4606285 4.10551666 6 1 6 C0.67 4.02 0.34 2.04 0 0 Z " fill="#424243" transform="translate(293,188)"/>
<path d="M0 0 C2.97 0 5.94 0 9 0 C2.98067039 4.01288641 -3.83699771 5.46715232 -11 5 C-11 4.34 -11 3.68 -11 3 C-10.28972656 2.95101562 -9.57945312 2.90203125 -8.84765625 2.8515625 C-7.46900391 2.73941406 -7.46900391 2.73941406 -6.0625 2.625 C-5.14597656 2.55539063 -4.22945312 2.48578125 -3.28515625 2.4140625 C-2.15400391 2.20910156 -2.15400391 2.20910156 -1 2 C-0.67 1.34 -0.34 0.68 0 0 Z " fill="#C4E34D" transform="translate(138,161)"/>
<path d="M0 0 C6.86892178 -0.7230444 6.86892178 -0.7230444 10.08984375 1.3359375 C11.80497879 2.83010422 13.43160073 4.35318077 15 6 C14.67 6.66 14.34 7.32 14 8 C10.76509224 7.44225728 9.02144994 6.62788492 7 4 C7 3.01 7 2.02 7 1 C4.69 1 2.38 1 0 1 C0 0.67 0 0.34 0 0 Z " fill="#51514F" transform="translate(163,182)"/>
<path d="M0 0 C0.33 0.66 0.66 1.32 1 2 C-3.79216354 9.43611584 -3.79216354 9.43611584 -6 11 C-7.32 10.67 -8.64 10.34 -10 10 C-6.7 6.7 -3.4 3.4 0 0 Z " fill="#CAEA57" transform="translate(206,138)"/>
<path d="M0 0 C0.33 0.99 0.66 1.98 1 3 C-0.18171562 4.50996997 -1.37551174 6.01407118 -2.66015625 7.4375 C-4.18802103 9.12592464 -4.18802103 9.12592464 -5.6875 11.875 C-6.120625 12.57625 -6.55375 13.2775 -7 14 C-7.66 14 -8.32 14 -9 14 C-8.39809977 10.95705993 -7.4634908 8.92781936 -5.625 6.4375 C-5.20476562 5.85871094 -4.78453125 5.27992188 -4.3515625 4.68359375 C-2.99854836 2.99819174 -1.55651887 1.49735295 0 0 Z " fill="#343436" transform="translate(360,189)"/>
<path d="M0 0 C0 4.24008655 -1.10118649 8.20237298 -3 12 C-3.22858114 14.0374763 -3.41024278 16.08040303 -3.5625 18.125 C-3.64628906 19.22070312 -3.73007812 20.31640625 -3.81640625 21.4453125 C-3.87699219 22.28835937 -3.93757813 23.13140625 -4 24 C-4.33 24 -4.66 24 -5 24 C-5.32290808 16.2621657 -5.53007672 9.07634645 -2 2 C-1.34 1.34 -0.68 0.68 0 0 Z " fill="#CCE765" transform="translate(446,183)"/>
<path d="M0 0 C-1.27789598 5.96351455 -4.33716394 8.48417174 -9 12 C-7.95309706 7.14617727 -6.12205041 0 0 0 Z " fill="#C2E439" transform="translate(454,176)"/>
<path d="M0 0 C1 3 1 3 0.22265625 4.71875 C-0.16019531 5.3065625 -0.54304688 5.894375 -0.9375 6.5 C-2.60977723 9.08494379 -3 9.78779497 -3 13 C-3.99 13 -4.98 13 -6 13 C-6 11.68 -6 10.36 -6 9 C-5.34 9 -4.68 9 -4 9 C-4.33 7.35 -4.66 5.7 -5 4 C-3.68 4 -2.36 4 -1 4 C-0.67 2.68 -0.34 1.36 0 0 Z " fill="#CCE957" transform="translate(501,209)"/>
<path d="M0 0 C6.0546875 -0.1953125 6.0546875 -0.1953125 8 0 C8.66 0.66 9.32 1.32 10 2 C12.89223503 2.46396693 12.89223503 2.46396693 16.125 2.625 C17.76855469 2.73714844 17.76855469 2.73714844 19.4453125 2.8515625 C20.70988281 2.92503906 20.70988281 2.92503906 22 3 C22 3.33 22 3.66 22 4 C13.94635715 4.33608711 7.50216736 4.0517291 0 1 C0 0.67 0 0.34 0 0 Z " fill="#CBE561" transform="translate(456,227)"/>
<path d="M0 0 C6.14878328 -0.68319814 9.13006363 -0.39114425 14.0625 3.5 C15.39291077 4.64620005 16.71197403 5.80636837 18 7 C17.01 7.495 17.01 7.495 16 8 C13.875 7.0625 13.875 7.0625 12 6 C12 5.34 12 4.68 12 4 C6.06 2.515 6.06 2.515 0 1 C0 0.67 0 0.34 0 0 Z " fill="#CFE76F" transform="translate(146,147)"/>
<path d="M0 0 C0.66 0 1.32 0 2 0 C2 0.99 2 1.98 2 3 C1.34 3 0.68 3 0 3 C-0.66 4.32 -1.32 5.64 -2 7 C-2.99 7 -3.98 7 -5 7 C-5 6.01 -5 5.02 -5 4 C-5.66 3.67 -6.32 3.34 -7 3 C-4.69 2.34 -2.38 1.68 0 1 C0 0.67 0 0.34 0 0 Z " fill="#434346" transform="translate(377,186)"/>
<path d="M0 0 C0.66 0 1.32 0 2 0 C2.05386629 2.12472576 2.09273071 4.24983652 2.125 6.375 C2.14820313 7.55835938 2.17140625 8.74171875 2.1953125 9.9609375 C2 13 2 13 0 15 C-0.19448477 12.87562788 -0.38038289 10.75046809 -0.5625 8.625 C-0.66691406 7.44164062 -0.77132812 6.25828125 -0.87890625 5.0390625 C-1 2 -1 2 0 0 Z " fill="#5E5E5F" transform="translate(225,169)"/>
<path d="M0 0 C0.33 0.66 0.66 1.32 1 2 C1.66 2 2.32 2 3 2 C3.66 4.64 4.32 7.28 5 10 C5.66 10 6.32 10 7 10 C6.67 11.32 6.34 12.64 6 14 C2.15870308 9.17375515 0.37742233 6.16456476 0 0 Z " fill="#C8E456" transform="translate(442,207)"/>
<path d="M0 0 C4.29 0 8.58 0 13 0 C12.34 0.66 11.68 1.32 11 2 C11 3.32 11 4.64 11 6 C9.02 6 7.04 6 5 6 C5.66 5.34 6.32 4.68 7 4 C7.66 4.33 8.32 4.66 9 5 C8.67 3.68 8.34 2.36 8 1 C3.545 1.495 3.545 1.495 -1 2 C-0.67 1.34 -0.34 0.68 0 0 Z " fill="#222223" transform="translate(302,204)"/>
<path d="M0 0 C1.3921875 0.4640625 1.3921875 0.4640625 2.8125 0.9375 C7.77871546 2.3783156 12.86205306 2.64694036 18 3 C13.53022919 5.62510349 9.9284389 5.09618303 5 4 C1.9375 2.5 1.9375 2.5 0 1 C0 0.67 0 0.34 0 0 Z " fill="#D0E775" transform="translate(166,175)"/>
<path d="M0 0 C0.99 0.33 1.98 0.66 3 1 C3.6875 3.0625 3.6875 3.0625 4 5 C3.2575 5.144375 2.515 5.28875 1.75 5.4375 C-0.52027739 5.90187492 -2.75759479 6.41863569 -5 7 C-3.88820837 3.66462511 -2.52588702 2.36292656 0 0 Z " fill="#6F6F6E" transform="translate(220,153)"/>
<path d="M0 0 C1.2065625 0.0309375 1.2065625 0.0309375 2.4375 0.0625 C1.4475 0.3925 0.4575 0.7225 -0.5625 1.0625 C-0.500625 2.17625 -0.43875 3.29 -0.375 4.4375 C-0.436875 5.63375 -0.49875 6.83 -0.5625 8.0625 C-1.5525 8.7225 -2.5425 9.3825 -3.5625 10.0625 C-3.58939216 8.58343108 -3.60884621 7.10422517 -3.625 5.625 C-3.63660156 4.80128906 -3.64820312 3.97757813 -3.66015625 3.12890625 C-3.51340586 0.02366796 -3.12550237 0.07623177 0 0 Z " fill="#E0F68C" transform="translate(123.5625,137.9375)"/>
<path d="M0 0 C-0.99 0.33 -1.98 0.66 -3 1 C-2.67 3.31 -2.34 5.62 -2 8 C-2.66 7.67 -3.32 7.34 -4 7 C-4 6.34 -4 5.68 -4 5 C-4.99 4.67 -5.98 4.34 -7 4 C-7.33 3.01 -7.66 2.02 -8 1 C-3.375 -1.125 -3.375 -1.125 0 0 Z " fill="#D1E56A" transform="translate(212,124)"/>
<path d="M0 0 C4.29 0 8.58 0 13 0 C13 0.33 13 0.66 13 1 C9.7 1.33 6.4 1.66 3 2 C3 3.65 3 5.3 3 7 C1.68 5.68 0.36 4.36 -1 3 C-0.67 2.01 -0.34 1.02 0 0 Z " fill="#E5EFAB" transform="translate(470,205)"/>
<path d="M0 0 C4.03174806 0.27489191 5.56894631 0.53491576 8.375 3.5625 C8.91125 4.366875 9.4475 5.17125 10 6 C8.35 6 6.7 6 5 6 C5 5.01 5 4.02 5 3 C3.35 2.67 1.7 2.34 0 2 C0 1.34 0 0.68 0 0 Z " fill="#C4E33F" transform="translate(486,175)"/>
<path d="M0 0 C1.15941038 3.47823115 0.70820884 5.45895578 0 9 C1.32 9.33 2.64 9.66 4 10 C3.01 10 2.02 10 1 10 C1 10.66 1 11.32 1 12 C0.01 11.67 -0.98 11.34 -2 11 C-2 7.7 -2 4.4 -2 1 C-1.34 0.67 -0.68 0.34 0 0 Z " fill="#CAE75D" transform="translate(139,140)"/>
<path d="M0 0 C-1.75 4.875 -1.75 4.875 -4 6 C-4.99 5.01 -5.98 4.02 -7 3 C-4.49955934 -0.00052879 -4.2621484 0 0 0 Z " fill="#282829" transform="translate(161,212)"/>
<path d="M0 0 C2.31 0 4.62 0 7 0 C7.33 1.32 7.66 2.64 8 4 C6.02 4.33 4.04 4.66 2 5 C1.34 3.35 0.68 1.7 0 0 Z " fill="#2C2C2E" transform="translate(303,205)"/>
<path d="M0 0 C0 1.32 0 2.64 0 4 C-3.81489674 5.46726798 -6.29011622 4.43336419 -10 3 C-6.59538535 1.23899242 -3.90650339 0 0 0 Z " fill="#BDE617" transform="translate(227,120)"/>
<path d="M0 0 C2.475 0.495 2.475 0.495 5 1 C5 1.66 5 2.32 5 3 C7.64 3.33 10.28 3.66 13 4 C13 4.33 13 4.66 13 5 C11.37509046 5.02698189 9.75005367 5.04638757 8.125 5.0625 C6.76761719 5.07990234 6.76761719 5.07990234 5.3828125 5.09765625 C3 5 3 5 1 4 C0.375 1.9375 0.375 1.9375 0 0 Z " fill="#232322" transform="translate(363,224)"/>
<path d="M0 0 C1.98 0 3.96 0 6 0 C5.67 2.31 5.34 4.62 5 7 C3.68 6.34 2.36 5.68 1 5 C1.33 4.01 1.66 3.02 2 2 C1.34 1.34 0.68 0.68 0 0 Z " fill="#262628" transform="translate(305,221)"/>
<path d="M0 0 C0.99 0 1.98 0 3 0 C3.125 3.375 3.125 3.375 3 7 C2.34 7.66 1.68 8.32 1 9 C-0.06546953 5.8035914 -0.07427838 3.34252724 0 0 Z " fill="#5F5F5E" transform="translate(288,172)"/>
<path d="M0 0 C2.97 0.495 2.97 0.495 6 1 C6 1.99 6 2.98 6 4 C5.34 4 4.68 4 4 4 C3.67 4.99 3.34 5.98 3 7 C0 3.375 0 3.375 0 0 Z " fill="#C6E739" transform="translate(204,153)"/>
<path d="M0 0 C0.93826619 3.06687009 1.01788333 5.45007796 0.625 8.625 C0.53476563 9.40101563 0.44453125 10.17703125 0.3515625 10.9765625 C0 13 0 13 -1 15 C-2.72973114 13.27026886 -2.17208117 10.97483037 -2.1875 8.625 C-2.20167969 7.64789063 -2.21585938 6.67078125 -2.23046875 5.6640625 C-2 3 -2 3 0 0 Z " fill="#D0E772" transform="translate(151,123)"/>
<path d="M0 0 C5.57142857 5.14285714 5.57142857 5.14285714 6 9 C4.68 8.67 3.36 8.34 2 8 C2 6.68 2 5.36 2 4 C1.34 4 0.68 4 0 4 C0 2.68 0 1.36 0 0 Z " fill="#D0E66C" transform="translate(498,222)"/>
<path d="M0 0 C4.29 0 8.58 0 13 0 C13 0.33 13 0.66 13 1 C12.21753906 1.04898438 11.43507812 1.09796875 10.62890625 1.1484375 C9.61699219 1.22320312 8.60507813 1.29796875 7.5625 1.375 C6.55316406 1.44460937 5.54382813 1.51421875 4.50390625 1.5859375 C3.26447266 1.79089844 3.26447266 1.79089844 2 2 C1.67 2.66 1.34 3.32 1 4 C0.34 4 -0.32 4 -1 4 C-0.67 2.68 -0.34 1.36 0 0 Z " fill="#555552" transform="translate(124,172)"/>
<path d="M0 0 C1.875 0.1875 1.875 0.1875 4 1 C5.87679987 4.37823976 6.21849583 7.17632299 6 11 C5.7525 10.484375 5.505 9.96875 5.25 9.4375 C3.60418384 6.22815849 1.8023904 3.12414336 0 0 Z " fill="#CEE65E" transform="translate(484,187)"/>
<path d="M0 0 C2.475 0.495 2.475 0.495 5 1 C5 1.99 5 2.98 5 4 C3.68 4.33 2.36 4.66 1 5 C0.67 3.35 0.34 1.7 0 0 Z " fill="#262627" transform="translate(293,189)"/>
<path d="M0 0 C0 1.65 0 3.3 0 5 C-4.875 2.25 -4.875 2.25 -6 0 C-2.25 -1.125 -2.25 -1.125 0 0 Z " fill="#C5E741" transform="translate(156,161)"/>
<path d="M0 0 C1.32 0 2.64 0 4 0 C4 1.98 4 3.96 4 6 C3.01 6.495 3.01 6.495 2 7 C1.34 4.69 0.68 2.38 0 0 Z " fill="#BEE722" transform="translate(136,134)"/>
<path d="M0 0 C0.33 0.99 0.66 1.98 1 3 C-0.65 4.65 -2.3 6.3 -4 8 C-4.66 7.67 -5.32 7.34 -6 7 C-4.02 4.69 -2.04 2.38 0 0 Z " fill="#666666" transform="translate(360,189)"/>
<path d="M0 0 C1.69141656 0.08963062 3.37959602 0.24577676 5.0625 0.4375 C6.44115234 0.59025391 6.44115234 0.59025391 7.84765625 0.74609375 C8.55792969 0.82988281 9.26820313 0.91367188 10 1 C10 1.33 10 1.66 10 2 C7.03 2 4.06 2 1 2 C0.67 3.32 0.34 4.64 0 6 C-0.38218767 4.34385343 -0.71395102 2.67542976 -1 1 C-0.67 0.67 -0.34 0.34 0 0 Z " fill="#202021" transform="translate(388,176)"/>
<path d="M0 0 C3.86648272 1.04097612 7.49461443 2.03698408 11 4 C6.35108046 4.32434322 3.77593392 3.776422 0 1 C0 0.67 0 0.34 0 0 Z " fill="#CFE770" transform="translate(153,140)"/>
</svg>
