<?xml version="1.0" encoding="UTF-8"?>
<svg version="1.1" xmlns="http://www.w3.org/2000/svg" width="612" height="408">
<path d="M0 0 C0.99 0.33 1.98 0.66 3 1 C4.1328125 3.3984375 4.1328125 3.3984375 5.125 6.375 C5.62386719 7.84066406 5.62386719 7.84066406 6.1328125 9.3359375 C6.41898437 10.21507812 6.70515625 11.09421875 7 12 C7.495 13.485 7.495 13.485 8 15 C9.59517567 34.26752183 6.68494639 49.46043399 -5 65 C-6.15136273 66.24281517 -7.33138101 67.4611393 -8.5625 68.625 C-9.366875 69.40875 -10.17125 70.1925 -11 71 C-11 72.32 -11 73.64 -11 75 C-9.02 75.99 -9.02 75.99 -7 77 C-7 77.66 -7 78.32 -7 79 C-6.13375 79.37125 -6.13375 79.37125 -5.25 79.75 C-2.6997003 81.16683317 -0.98214299 82.87627537 1 85 C0.505 86.485 0.505 86.485 0 88 C-3.3764736 87.97705833 -6.74961905 87.8995634 -10.125 87.8125 C-11.55199219 87.80379883 -11.55199219 87.80379883 -13.0078125 87.79492188 C-20.95449357 87.54658809 -20.95449357 87.54658809 -24.36328125 84.375 C-25.23339844 83.59125 -26.10351562 82.8075 -27 82 C-29.55112263 82.04810301 -29.55112263 82.04810301 -32.0625 83.1875 C-38.03967182 85.0300868 -43.48693449 85.32826093 -49.6875 85.3125 C-50.56607666 85.31725342 -51.44465332 85.32200684 -52.34985352 85.3269043 C-61.65377447 85.23340194 -69.2424009 83.30815237 -77.5 79.0625 C-78.21414062 78.71509766 -78.92828125 78.36769531 -79.6640625 78.00976562 C-84.87318452 75.38044643 -84.87318452 75.38044643 -86 72 C-87.32407669 71.31513275 -88.65909241 70.65129797 -90 70 C-92.25 68 -92.25 68 -94 66 C-94 65.34 -94 64.68 -94 64 C-94.99 63.67 -95.98 63.34 -97 63 C-105.67465733 49.94283351 -108.75095241 36.49842318 -109 21 C-108 19 -108 19 -105 18 C-102.93854893 17.931009 -100.87498599 17.91532273 -98.8125 17.9375 C-97.18248047 17.95103516 -97.18248047 17.95103516 -95.51953125 17.96484375 C-94.68808594 17.97644531 -93.85664063 17.98804688 -93 18 C-91.54379322 20.91241356 -91.80368728 23.62839539 -91.6875 26.875 C-91.29995294 34.72757738 -89.53862257 41.92275486 -86 49 C-82.83884224 47.63016497 -82.0072908 47.0109362 -80 44 C-79.34 44 -78.68 44 -78 44 C-77.34 42.68 -76.68 41.36 -76 40 C-75.34 40 -74.68 40 -74 40 C-73.34 38.68 -72.68 37.36 -72 36 C-71.34 36 -70.68 36 -70 36 C-69.7215625 35.1028125 -69.7215625 35.1028125 -69.4375 34.1875 C-67.21571607 30.80652446 -64.81826023 30.12669974 -61 29 C-56.6316967 29.74039039 -53.22767991 30.90142728 -50 34 C-50 34.66 -50 35.32 -50 36 C-48.68 36.66 -47.36 37.32 -46 38 C-46 38.66 -46 39.32 -46 40 C-44.68 40.66 -43.36 41.32 -42 42 C-42 42.66 -42 43.32 -42 44 C-40.515 44.495 -40.515 44.495 -39 45 C-37.421875 46.6015625 -37.421875 46.6015625 -35.75 48.625 C-32.35878848 52.63082341 -28.76066802 56.3422074 -25 60 C-16.65751391 55.52110095 -12.33989377 47.21609321 -9.6484375 38.37109375 C-8.29734429 31.34703686 -7.72228366 22.83314902 -10 16 C-10.5625 12.8125 -10.5625 12.8125 -10 9 C-7.23622393 5.45556737 -4.05496574 2.02748287 0 0 Z M-63.52734375 49.35546875 C-64.22537109 50.26232422 -64.22537109 50.26232422 -64.9375 51.1875 C-66.84268097 53.58715542 -68.64132639 55.61344264 -70.875 57.75 C-73.34331177 59.84769748 -73.34331177 59.84769748 -73 63 C-64.14400671 70.45767856 -53.06971525 70.71953149 -42 70 C-41.34 69.67 -40.68 69.34 -40 69 C-41.33999498 65.993182 -42.79845291 64.00237391 -45.1875 61.75 C-48.49152119 58.54966148 -51.52413731 55.18813298 -54.51953125 51.69921875 C-55.63171172 50.42270555 -56.80283014 49.19716986 -58 48 C-61.84172149 47.55748668 -61.84172149 47.55748668 -63.52734375 49.35546875 Z " fill="#191A19" transform="translate(223,164)"/>
<path d="M0 0 C2.09375 -0.328125 2.09375 -0.328125 4.5 -0.25 C5.69109375 -0.22679688 5.69109375 -0.22679688 6.90625 -0.203125 C9 0 9 0 11 1 C11 4.63 11 8.26 11 12 C12.70929688 11.96519531 14.41859375 11.93039063 16.1796875 11.89453125 C18.41144854 11.86639981 20.64322017 11.83909897 22.875 11.8125 C24.00292969 11.78736328 25.13085938 11.76222656 26.29296875 11.73632812 C27.90751953 11.72182617 27.90751953 11.72182617 29.5546875 11.70703125 C31.04718018 11.68346558 31.04718018 11.68346558 32.56982422 11.65942383 C33.37178223 11.77181396 34.17374023 11.8842041 35 12 C37.32683933 15.49025899 37.10106609 17.18648165 36.55859375 21.23828125 C35.47140375 26.61340941 33.72741991 31.80167126 32 37 C32.69722168 36.69497559 33.39444336 36.38995117 34.11279297 36.07568359 C39.38993597 34.10958415 44.38856177 33.27292567 50 34 C54.02551849 36.5002413 56.8408042 39.76869994 59.875 43.375 C65.31254219 50.41734183 65.31254219 50.41734183 72.9375 54.13671875 C76.13219678 53.99409836 77.48437512 53.92864574 80 52 C81.82109111 49.89937585 81.82109111 49.89937585 83.55859375 47.73046875 C85.55755127 45.33063628 87.77573775 43.1918858 90 41 C90.8971875 40.1028125 91.794375 39.205625 92.71875 38.28125 C98.8125 32.1875 104.90625 26.09375 111 20 C109.60667426 16.63279613 108.0210714 15.0140476 105 13 C105.33 12.01 105.66 11.02 106 10 C108.87890625 8.9375 108.87890625 8.9375 112.5625 8 C118.48947382 6.43883694 118.48947382 6.43883694 124.25 4.375 C128.76856085 2.71819436 133.26951727 1.82395703 138 1 C136.29085457 32.70914543 136.29085457 32.70914543 132 37 C129.03 34.69 126.06 32.38 123 30 C122.44570312 30.6496875 121.89140625 31.299375 121.3203125 31.96875 C120.59585938 32.8040625 119.87140625 33.639375 119.125 34.5 C118.40570313 35.3353125 117.68640625 36.170625 116.9453125 37.03125 C116.30335938 37.6809375 115.66140625 38.330625 115 39 C114.34 39 113.68 39 113 39 C112.34 40.32 111.68 41.64 111 43 C110.34 43 109.68 43 109 43 C108.34 44.32 107.68 45.64 107 47 C106.34 47 105.68 47 105 47 C104.34 48.32 103.68 49.64 103 51 C102.34 51 101.68 51 101 51 C100.77441406 51.5465625 100.54882812 52.093125 100.31640625 52.65625 C96.38425734 59.6571086 88.83451894 66.717926 81.25390625 69.484375 C74.29645189 71.07602834 68.2511391 70.58861689 62 67 C58.26304662 64.1509591 54.90822185 61.10041112 51.9140625 57.47265625 C49.72328774 54.90620712 47.82236292 52.85787039 45 51 C40.71888596 50.71034411 37.07955872 51.78356908 33 53 C31.19160707 53.39433013 29.37918974 53.77085364 27.5625 54.125 C26.80066406 54.29257813 26.03882813 54.46015625 25.25390625 54.6328125 C22.7599339 55.03910956 20.52190275 55.19174798 18 55 C15.625 53 15.625 53 14 50 C14.09860742 47.09108111 14.38997341 44.80124211 15 42 C15.15082031 41.17757812 15.30164063 40.35515625 15.45703125 39.5078125 C16.37818944 34.57999063 17.54072731 29.79475312 19 25 C16.36 25 13.72 25 11 25 C11.01160156 25.71027344 11.02320312 26.42054688 11.03515625 27.15234375 C11.04417969 28.07144531 11.05320312 28.99054688 11.0625 29.9375 C11.07410156 30.85402344 11.08570312 31.77054688 11.09765625 32.71484375 C11 35 11 35 10 36 C8.31816052 36.23287008 6.6287584 36.41264166 4.9375 36.5625 C4.01839844 36.64628906 3.09929687 36.73007813 2.15234375 36.81640625 C1.44207031 36.87699219 0.73179688 36.93757813 0 37 C-2.56616632 33.15075052 -2.55097676 30.5650696 -3 26 C-4.11375 25.896875 -5.2275 25.79375 -6.375 25.6875 C-8.169375 25.3471875 -8.169375 25.3471875 -10 25 C-12 22 -12 22 -11.75 18.5 C-11 15 -11 15 -9 12 C-5.375 11.8125 -5.375 11.8125 -2 12 C-2.02320312 11.38511719 -2.04640625 10.77023438 -2.0703125 10.13671875 C-2.09738281 8.92435547 -2.09738281 8.92435547 -2.125 7.6875 C-2.14820312 6.88699219 -2.17140625 6.08648437 -2.1953125 5.26171875 C-2 3 -2 3 0 0 Z " fill="#C3EC0A" transform="translate(103,122)"/>
<path d="M0 0 C0.495 0.99 0.495 0.99 1 2 C1.76828125 2.41507813 2.5365625 2.83015625 3.328125 3.2578125 C6.59834892 5.39015149 7.84191834 7.48942148 9.75 10.875 C10.34296875 11.90367187 10.9359375 12.93234375 11.546875 13.9921875 C15.2891654 21.73832622 15.31893221 31.89099192 12.625 40 C11.75422336 42.25170525 10.82578601 44.32665123 9.6875 46.4609375 C8.66563126 49.05389478 8.66563126 49.05389478 10.3359375 51.3515625 C11.00882813 52.10179687 11.68171875 52.85203125 12.375 53.625 C16 57.72586873 16 57.72586873 16 61 C10.72 61 5.44 61 0 61 C-0.33 60.34 -0.66 59.68 -1 59 C-4.16021824 59.46247096 -7.0382808 60.01328109 -10.0625 61.0625 C-17.93807488 63.35008383 -26.6607326 63.0829803 -33.9453125 59.25390625 C-34.96238281 58.63322266 -34.96238281 58.63322266 -36 58 C-36.69867188 57.57589844 -37.39734375 57.15179688 -38.1171875 56.71484375 C-44.90315035 52.1183142 -50.14844615 45.49541197 -51.7578125 37.30078125 C-53.06309237 24.90062247 -51.48892611 15.13601855 -44 5 C-32.95342928 -6.80146165 -13.48101318 -8.08860791 0 0 Z M-33.375 16.375 C-36.55245134 21.50780601 -37.51849122 25.9855019 -37 32 C-36.1591892 34.7654413 -35.12469741 37.32884366 -34 40 C-33.34 40 -32.68 40 -32 40 C-31.814375 40.598125 -31.62875 41.19625 -31.4375 41.8125 C-29.34036858 45.00378694 -26.56770281 46.04907532 -23 47 C-18.67488935 47.51489413 -15.73728919 47.49152613 -12 45 C-14.64 41.7 -17.28 38.4 -20 35 C-17.37549914 34.77880061 -14.75129514 34.57253331 -12.125 34.375 C-11.37863281 34.31054688 -10.63226563 34.24609375 -9.86328125 34.1796875 C-7.9129953 34.03912635 -5.95530533 34.01240151 -4 34 C-3.34 34.66 -2.68 35.32 -2 36 C-0.09380991 30.28142973 -0.27645267 24.95402046 -2.8125 19.5625 C-4.36853434 16.5160113 -4.589266 16.13691133 -8 15 C-8.33 14.01 -8.66 13.02 -9 12 C-18.08597795 8.48950852 -26.38719457 9.38719457 -33.375 16.375 Z " fill="#C0E90A" transform="translate(510,189)"/>
<path d="M0 0 C4.62 0 9.24 0 14 0 C15.9230889 1.9230889 15.25321838 5.47070485 15.31640625 8.09765625 C15.33718735 8.80651474 15.35796844 9.51537323 15.37937927 10.24571228 C15.44494598 12.51787305 15.5037923 14.79015264 15.5625 17.0625 C15.60567849 18.59962183 15.64929255 20.1367315 15.69335938 21.67382812 C15.80063449 25.4490959 15.90188137 29.2244836 16 33 C16.51949219 32.26394531 17.03898437 31.52789062 17.57421875 30.76953125 C27.15288853 17.36647576 27.15288853 17.36647576 32.91796875 16.22265625 C34.34003026 16.14504142 35.76363039 16.0921371 37.1875 16.0625 C37.91130859 16.02060547 38.63511719 15.97871094 39.38085938 15.93554688 C41.25239044 15.85720371 43.12858225 15.91899524 45 16 C45.66 16.66 46.32 17.32 47 18 C45.625 20 45.625 20 44 22 C43.34 22 42.68 22 42 22 C41.76539063 22.54140625 41.53078125 23.0828125 41.2890625 23.640625 C39.6416356 26.65591544 37.57346656 29.11184012 35.375 31.75 C34.55773437 32.73484375 33.74046875 33.7196875 32.8984375 34.734375 C32.27195312 35.48203125 31.64546875 36.2296875 31 37 C31.309375 37.763125 31.61875 38.52625 31.9375 39.3125 C32.67893593 41.18789677 33.36228217 43.08684652 34 45 C34.66 45 35.32 45 36 45 C36.495 46.98 36.495 46.98 37 49 C37.66 49 38.32 49 39 49 C39.495 50.98 39.495 50.98 40 53 C40.66 53 41.32 53 42 53 C43.5078125 54.6796875 43.5078125 54.6796875 45.125 56.875 C45.66382813 57.59429687 46.20265625 58.31359375 46.7578125 59.0546875 C48 61 48 61 48 63 C32.16469629 64.52262536 32.16469629 64.52262536 27.234375 61.0546875 C25.22396516 58.4664827 23.60219648 55.8564412 22 53 C20.85517632 51.4420443 19.69036216 49.89844516 18.5 48.375 C17.675 47.26125 16.85 46.1475 16 45 C15.67 50.94 15.34 56.88 15 63 C10.05 63 5.1 63 0 63 C0 42.21 0 21.42 0 0 Z " fill="#E5E5E5" transform="translate(349,186)"/>
<path d="M0 0 C3.18243191 2.6981488 5.53339068 5.09284202 7 9 C7.1683504 11.71894955 7.23294575 14.33103955 7.1953125 17.046875 C7.1924826 17.81807678 7.18965271 18.58927856 7.18673706 19.3838501 C7.17557013 21.83939332 7.15047229 24.2945676 7.125 26.75 C7.11496568 28.41796347 7.10584061 30.08593268 7.09765625 31.75390625 C7.07564225 35.83607897 7.04113667 39.917977 7 44 C2.05 44 -2.9 44 -8 44 C-8 43.34 -8 42.68 -8 42 C-9.11375 42.495 -10.2275 42.99 -11.375 43.5 C-17.43053138 45.75072848 -23.76310862 46.10282332 -29.875 43.8125 C-33.79608298 41.53827187 -35.98470264 39.03059473 -38 35 C-38.56266426 30.38799786 -38.40400598 26.87265291 -36.4375 22.625 C-30.43994007 16.1660893 -22.21208132 15.79807866 -13.93359375 15.28125 C-11.06834254 15.18409339 -11.06834254 15.18409339 -9 14 C-9 13.01 -9 12.02 -9 11 C-17.10022932 8.7348352 -24.90974363 10.36146706 -33 12 C-33 8.04 -33 4.08 -33 0 C-22.40474581 -3.6960189 -10.26925354 -5.41469732 0 0 Z M-24 28 C-23.42655063 30.86724686 -23.1385485 31.8614515 -21 34 C-16.04319159 34.56881408 -14.07905842 34.78681343 -10 31.8125 C-7.78769447 28.70144535 -7.80288526 27.66510225 -8 24 C-14.69286912 23.52382749 -18.77531236 23.60026304 -24 28 Z " fill="#E8E8E8" transform="translate(334,205)"/>
<path d="M0 0 C17.49 0 34.98 0 53 0 C53 4.62 53 9.24 53 14 C46.73 14 40.46 14 34 14 C34 30.17 34 46.34 34 63 C29.05 63 24.1 63 19 63 C19 46.83 19 30.66 19 14 C12.73 14 6.46 14 0 14 C0 9.38 0 4.76 0 0 Z " fill="#ECECEC" transform="translate(249,186)"/>
<path d="M0 0 C4.95 0 9.9 0 15 0 C15 3.96 15 7.92 15 12 C17.1965625 11.9690625 17.1965625 11.9690625 19.4375 11.9375 C20.95832518 11.91607993 22.48071962 11.92820036 24 12 C25 13 25 13 25.09765625 15.28515625 C25.06510417 17.85677083 25.03255208 20.42838542 25 23 C21.7 23 18.4 23 15 23 C15.33 30.26 15.66 37.52 16 45 C20.80388386 46.13074409 20.80388386 46.13074409 25 46 C25 49.63 25 53.26 25 57 C17.76146087 59.89541565 12.098069 59.6605032 4.7265625 57.33984375 C1.84701853 55.10526551 0.81630518 52.4405032 0 49 C-0.34824357 44.51253919 -0.28318853 40.05986071 -0.1875 35.5625 C-0.17396484 34.35400391 -0.16042969 33.14550781 -0.14648438 31.90039062 C-0.11129946 28.93312918 -0.06206696 25.96680063 0 23 C-2.31 23 -4.62 23 -7 23 C-7.33 19.37 -7.66 15.74 -8 12 C-5.36 12 -2.72 12 0 12 C0 8.04 0 4.08 0 0 Z " fill="#E9E9E9" transform="translate(405,191)"/>
<path d="M0 0 C2.47923801 -0.02685095 4.9581884 -0.04676547 7.4375 -0.0625 C8.14455078 -0.07087891 8.85160156 -0.07925781 9.58007812 -0.08789062 C11.38693559 -0.09653588 13.19387603 -0.05220011 15 0 C16 1 16 1 16.12025452 3.43605042 C16.1169236 5.05820717 16.1169236 5.05820717 16.11352539 6.71313477 C16.11344986 7.9343251 16.11337433 9.15551544 16.11329651 10.41371155 C16.10818911 11.75627686 16.10297311 13.09884175 16.09765625 14.44140625 C16.09579199 15.80761158 16.09436813 17.17381757 16.09336853 18.5400238 C16.08954394 22.14201695 16.07971417 25.74397 16.06866455 29.34594727 C16.05844916 33.01903745 16.05387064 36.69213409 16.04882812 40.36523438 C16.03809184 47.57684123 16.02101614 54.788415 16 62 C12.5660913 63.85206272 10.23906293 64.24516648 6.3125 64.1875 C5.33925781 64.18105469 4.36601562 64.17460937 3.36328125 64.16796875 C1 64 1 64 0 63 C-0.12851406 61.21697147 -0.18844499 59.42895555 -0.22119141 57.64160156 C-0.24436432 56.49661194 -0.26753723 55.35162231 -0.29141235 54.17193604 C-0.32118668 52.30018707 -0.32118668 52.30018707 -0.3515625 50.390625 C-0.37471527 49.11652771 -0.39786804 47.84243042 -0.42172241 46.52972412 C-0.46946093 43.8261402 -0.51516401 41.12260876 -0.55761719 38.41894531 C-0.61223628 34.96101963 -0.67611085 31.50333915 -0.74279213 28.04562759 C-0.8050999 24.74404791 -0.85918751 21.44233531 -0.9140625 18.140625 C-0.93796051 16.90088928 -0.96185852 15.66115356 -0.98648071 14.3838501 C-1.0033493 13.22625183 -1.0202179 12.06865356 -1.03759766 10.87597656 C-1.05456696 9.85973206 -1.07153625 8.84348755 -1.08901978 7.79644775 C-1.00262266 5.08238763 -0.61595155 2.6397492 0 0 Z " fill="#B3E20A" transform="translate(437,186)"/>
<path d="M0 0 C-1.98 0.99 -1.98 0.99 -4 2 C-4.66 1.34 -5.32 0.68 -6 0 C-12.74952301 -2.21955468 -19.05876755 -2.0928749 -26 -1 C-26.66 0.98 -27.32 2.96 -28 5 C-27.34 5 -26.68 5 -26 5 C-26.33 6.32 -26.66 7.64 -27 9 C-22.05 8.67 -17.1 8.34 -12 8 C-12 8.99 -12 9.98 -12 11 C-12.70125 10.95359375 -13.4025 10.9071875 -14.125 10.859375 C-20.72024098 10.60846909 -25.54909241 11.10649458 -31 15 C-34.70909145 18.70909145 -35.86890842 23.23026372 -36.25 28.375 C-35.96589157 32.49457217 -35.11451275 36.02954833 -34 40 C-33.34 40 -32.68 40 -32 40 C-31.2575 40.78375 -30.515 41.5675 -29.75 42.375 C-26.85173338 45.14152723 -24.830469 46.02011258 -21 47 C-24.08162384 47.91307373 -26.79320141 48.41112802 -30 48 C-31.8125 46 -31.8125 46 -33 44 C-35.46800047 45.15173355 -37.04783565 46.04783565 -39 48 C-39.65562364 50.09799564 -40 51.80040399 -40 54 C-39.34 54 -38.68 54 -38 54 C-38.33 54.66 -38.66 55.32 -39 56 C-45.32360933 51.35296721 -49.93243736 45.94838781 -51.62109375 38.12109375 C-53.15465049 25.489013 -51.64527328 15.34762939 -44 5 C-32.73124117 -7.03883347 -13.7436148 -7.75280835 0 0 Z " fill="#BBE10D" transform="translate(510,189)"/>
<path d="M0 0 C3.21568253 2.74278804 4.79564744 5.55214885 5.41015625 9.76953125 C5.61660866 14.46407956 4.94935406 17.92901316 2.125 21.8125 C-1.32603789 24.26555563 -4.72572953 25.59701179 -8.875 26.375 C-13.27303797 25.55036788 -16.50847223 23.74894272 -19.875 20.8125 C-22.23612915 17.02038348 -23.12749803 14.08918293 -22.8125 9.6875 C-21.52031349 4.34646243 -19.64381948 2.0465601 -15.1875 -1.0625 C-9.81710518 -2.88640768 -5.18913714 -2.14333925 0 0 Z " fill="#C3EE08" transform="translate(170.875,127.1875)"/>
<path d="M0 0 C0 0.99 0 1.98 0 3 C1.6396875 3.2165625 1.6396875 3.2165625 3.3125 3.4375 C7 4 7 4 10 5 C10.825 4.649375 11.65 4.29875 12.5 3.9375 C13.325 3.628125 14.15 3.31875 15 3 C15.99 3.66 16.98 4.32 18 5 C18.33 3.35 18.66 1.7 19 0 C21.64 0 24.28 0 27 0 C28.19863967 3.74574898 28.47968076 7.09402809 28 11 C24.22077297 14.86511855 20.56433928 17.95918823 15.0546875 18.046875 C14.00539062 17.94890625 12.95609375 17.8509375 11.875 17.75 C10.82054687 17.66234375 9.76609375 17.5746875 8.6796875 17.484375 C6 17 6 17 4 15 C3.319375 14.835 2.63875 14.67 1.9375 14.5 C1.298125 14.335 0.65875 14.17 0 14 C-0.33 13.34 -0.66 12.68 -1 12 C-1.99 12 -2.98 12 -4 12 C-4 11.01 -4 10.02 -4 9 C-5.32 9 -6.64 9 -8 9 C-8.33 7.68 -8.66 6.36 -9 5 C-8.01 5 -7.02 5 -6 5 C-5.71125 4.360625 -5.4225 3.72125 -5.125 3.0625 C-3.72314735 0.49243681 -2.91896073 0 0 0 Z " fill="#C4EE08" transform="translate(167,173)"/>
<path d="M0 0 C3.92336156 3.26946797 7.46398603 6.51106877 10.875 10.3125 C13.83020651 13.35462435 15.76420108 14.54189635 20 15 C21.32 15 22.64 15 24 15 C23 17 23 17 20.9375 17.8125 C16.82258294 18.07515428 13.72363119 16.635441 10 15 C10 14.01 10 13.02 10 12 C5.57846118 14.48279778 5.57846118 14.48279778 2 18 C2 18.99 2 19.98 2 21 C3.32 21 4.64 21 6 21 C6 21.99 6 22.98 6 24 C7.32 23.67 8.64 23.34 10 23 C10 23.99 10 24.98 10 26 C10.804375 26.144375 11.60875 26.28875 12.4375 26.4375 C15 27 15 27 16 28 C17.51165654 28.39148761 19.03469632 28.73972457 20.5625 29.0625 C21.38878906 29.23910156 22.21507812 29.41570312 23.06640625 29.59765625 C23.70449219 29.73042969 24.34257812 29.86320312 25 30 C25 30.33 25 30.66 25 31 C15.26415051 31.52890933 9.39137627 29.56631219 2.0859375 23.05859375 C0 21 0 21 -2.0859375 18.47265625 C-4.27671226 15.90620712 -6.17763708 13.85787039 -9 12 C-13.28111404 11.71034411 -16.92044128 12.78356908 -21 14 C-22.80839293 14.39433013 -24.62081026 14.77085364 -26.4375 15.125 C-27.19933594 15.29257813 -27.96117187 15.46015625 -28.74609375 15.6328125 C-31.26353075 16.04293222 -33.45680585 16.26323546 -36 16 C-36.66 15.01 -37.32 14.02 -38 13 C-37.030625 12.71125 -36.06125 12.4225 -35.0625 12.125 C-31.89335797 11.35785318 -31.89335797 11.35785318 -31 9 C-30.67 9.99 -30.34 10.98 -30 12 C-23.58315504 11.53642565 -17.37772828 10.79991684 -11.09375 9.40234375 C-9 9 -9 9 -6 9 C-6.33 7.68 -6.66 6.36 -7 5 C-4.36 4.67 -1.72 4.34 1 4 C0.505 2.02 0.505 2.02 0 0 Z " fill="#BAE00E" transform="translate(157,161)"/>
<path d="M0 0 C-1.70914543 31.70914543 -1.70914543 31.70914543 -6 36 C-8.64 34.02 -11.28 32.04 -14 30 C-13.67 29.34 -13.34 28.68 -13 28 C-10.93359375 27.5859375 -10.93359375 27.5859375 -8.4375 27.375 C-7.61121094 27.30023438 -6.78492188 27.22546875 -5.93359375 27.1484375 C-4.97646484 27.07496094 -4.97646484 27.07496094 -4 27 C-3.16447132 20.83635854 -3.16447132 20.83635854 -5.265625 15.29296875 C-7.06726265 13.7981836 -7.06726265 13.7981836 -10 12 C-10.66 11.34 -11.32 10.68 -12 10 C-11.625 7.875 -11.625 7.875 -11 6 C-11.598125 6.33 -12.19625 6.66 -12.8125 7 C-16.07120877 8.48969544 -19.45727725 8 -23 8 C-23 8.66 -23 9.32 -23 10 C-24.65 10.33 -26.3 10.66 -28 11 C-27.67 11.66 -27.34 12.32 -27 13 C-26.67 14.32 -26.34 15.64 -26 17 C-28.31 15.35 -30.62 13.7 -33 12 C-32.67 11.01 -32.34 10.02 -32 9 C-29.12109375 7.9375 -29.12109375 7.9375 -25.4375 7 C-19.45529992 5.42089009 -19.45529992 5.42089009 -13.625 3.375 C-9.30883 1.73783207 -4.66414444 0 0 0 Z " fill="#C6EE0E" transform="translate(241,123)"/>
<path d="M0 0 C1.010625 0.08765625 2.02125 0.1753125 3.0625 0.265625 C5.99014061 0.74837425 8.34719832 1.42598049 11 2.75 C11.8125 4.875 11.8125 4.875 12 6.75 C11.01 7.08 10.02 7.41 9 7.75 C9 10.06 9 12.37 9 14.75 C6.525 14.255 6.525 14.255 4 13.75 C4 12.76 4 11.77 4 10.75 C3.45859375 10.91371094 2.9171875 11.07742187 2.359375 11.24609375 C-0.40222593 11.83590587 -2.92818139 11.84609308 -5.75 11.8125 C-6.73484375 11.80347656 -7.7196875 11.79445312 -8.734375 11.78515625 C-9.48203125 11.77355469 -10.2296875 11.76195312 -11 11.75 C-10.67 10.43 -10.34 9.11 -10 7.75 C-10.66 7.75 -11.32 7.75 -12 7.75 C-11.8125 4.875 -11.8125 4.875 -11 1.75 C-7.22099924 -0.35321407 -4.24178705 -0.41119364 0 0 Z " fill="#C3EE08" transform="translate(494,186.25)"/>
<path d="M0 0 C-1.70914543 31.70914543 -1.70914543 31.70914543 -6 36 C-8.64 34.02 -11.28 32.04 -14 30 C-13.67 29.34 -13.34 28.68 -13 28 C-10.93359375 27.5859375 -10.93359375 27.5859375 -8.4375 27.375 C-7.61121094 27.30023438 -6.78492188 27.22546875 -5.93359375 27.1484375 C-4.97646484 27.07496094 -4.97646484 27.07496094 -4 27 C-3.93941406 25.68644531 -3.87882813 24.37289062 -3.81640625 23.01953125 C-3.73196744 21.28384459 -3.64732112 19.54816802 -3.5625 17.8125 C-3.52318359 16.94818359 -3.48386719 16.08386719 -3.44335938 15.19335938 C-3.23652984 11.04085878 -2.99896469 7.05462138 -2 3 C-4.64 3 -7.28 3 -10 3 C-10 2.67 -10 2.34 -10 2 C-8.7090864 1.66376204 -7.41723903 1.33110751 -6.125 1 C-5.40570313 0.814375 -4.68640625 0.62875 -3.9453125 0.4375 C-2 0 -2 0 0 0 Z " fill="#879921" transform="translate(241,123)"/>
<path d="M0 0 C0.99 0 1.98 0 3 0 C3 0.66 3 1.32 3 2 C3.99 2 4.98 2 6 2 C6 2.66 6 3.32 6 4 C5.34 4 4.68 4 4 4 C4 5.32 4 6.64 4 8 C4.66 8 5.32 8 6 8 C6 8.66 6 9.32 6 10 C6.66 9.67 7.32 9.34 8 9 C8.65772428 5.97065509 8.65772428 5.97065509 9 3 C9.66 3 10.32 3 11 3 C11.125 9.625 11.125 9.625 10 13 C6.7 13 3.4 13 0 13 C-0.19397476 11.02145742 -0.38001321 9.0421352 -0.5625 7.0625 C-0.66691406 5.96035156 -0.77132812 4.85820312 -0.87890625 3.72265625 C-0.91886719 2.82417969 -0.95882812 1.92570313 -1 1 C-0.67 0.67 -0.34 0.34 0 0 Z " fill="#C9F20B" transform="translate(102,144)"/>
<path d="M0 0 C0.66 0 1.32 0 2 0 C4.8871897 4.81198284 5.76701306 8.52133525 5 14 C3.67030744 18.32150081 2.06712647 20.25344518 -1.8125 22.375 C-5.3141244 23.92267929 -8.14268467 24.55104505 -12 24 C-12.66 23.34 -13.32 22.68 -14 22 C-11.03 21.67 -8.06 21.34 -5 21 C-5 19.68 -5 18.36 -5 17 C-4.34 17 -3.68 17 -3 17 C-3 17.66 -3 18.32 -3 19 C-2.01 18.67 -1.02 18.34 0 18 C2.22211185 13.33356512 1.99845811 9.99229057 1 5 C0.814375 4.030625 0.62875 3.06125 0.4375 2.0625 C0.293125 1.381875 0.14875 0.70125 0 0 Z " fill="#A1B521" transform="translate(171,129)"/>
<path d="M0 0 C-0.58803797 3.02419525 -1.22678118 6.01758453 -2 9 C-1.34 9 -0.68 9 0 9 C-1.24303439 14.17930997 -2.85487785 17.70166639 -6 22 C-7.05579601 18.742757 -6.91586439 16.51492006 -6.1875 13.1875 C-5.99800781 12.31738281 -5.80851562 11.44726562 -5.61328125 10.55078125 C-4.83924735 7.33139186 -3.96403986 4.16755954 -3 1 C-5.31 1 -7.62 1 -10 1 C-10 0.67 -10 0.34 -10 0 C-3.375 -1.125 -3.375 -1.125 0 0 Z " fill="#AFCC18" transform="translate(125,146)"/>
<path d="M0 0 C0.66 0 1.32 0 2 0 C2 20.13 2 40.26 2 61 C1.67 61 1.34 61 1 61 C0.98969254 60.38914047 0.97938507 59.77828094 0.96876526 59.14891052 C0.86032412 52.77324532 0.74575838 46.39771075 0.62768555 40.0222168 C0.58445692 37.64496604 0.54277364 35.26768665 0.50268555 32.89038086 C0.44468976 29.4671975 0.38108046 26.04415666 0.31640625 22.62109375 C0.29969376 21.56353378 0.28298126 20.50597382 0.26576233 19.41636658 C0.16130933 14.17670795 -0.19909349 9.17459004 -1 4 C-0.5625 1.5625 -0.5625 1.5625 0 0 Z " fill="#C5E32B" transform="translate(437,187)"/>
<path d="M0 0 C0.66 0.33 1.32 0.66 2 1 C2 1.66 2 2.32 2 3 C8.48786089 2.53129522 14.68315684 1.7745771 21.00390625 0.20703125 C21.66261719 0.13871094 22.32132813 0.07039062 23 0 C23.66 0.66 24.32 1.32 25 2 C24.3709375 2.12246094 23.741875 2.24492187 23.09375 2.37109375 C20.56745459 2.88464623 18.04955453 3.42190764 15.53125 3.97265625 C14.30341797 4.23852539 14.30341797 4.23852539 13.05078125 4.50976562 C11.34944783 4.87843129 9.64891961 5.25083249 7.94921875 5.62695312 C-0.74129788 7.49507205 -0.74129788 7.49507205 -4 7 C-4.66 6.01 -5.32 5.02 -6 4 C-4.02 3.34 -2.04 2.68 0 2 C0 1.34 0 0.68 0 0 Z " fill="#9EB61E" transform="translate(125,170)"/>
<path d="M0 0 C2.97 0.495 2.97 0.495 6 1 C6 1.99 6 2.98 6 4 C7.32 3.67 8.64 3.34 10 3 C10 3.99 10 4.98 10 6 C10.804375 6.144375 11.60875 6.28875 12.4375 6.4375 C15 7 15 7 16 8 C17.51165654 8.39148761 19.03469632 8.73972457 20.5625 9.0625 C21.38878906 9.23910156 22.21507812 9.41570312 23.06640625 9.59765625 C23.70449219 9.73042969 24.34257812 9.86320313 25 10 C25 10.33 25 10.66 25 11 C16.14594688 11.4810049 10.45786163 10.25598269 3.5625 4.375 C2.34628896 3.2811024 1.1491859 2.16411039 0 1 C0 0.67 0 0.34 0 0 Z " fill="#9EB41D" transform="translate(157,181)"/>
<path d="M0 0 C-1.98 0.99 -1.98 0.99 -4 2 C-4.66 1.34 -5.32 0.68 -6 0 C-12.76376872 -2.22423933 -19.05335358 -2.09809531 -26 -1 C-27.19625 -0.814375 -28.3925 -0.62875 -29.625 -0.4375 C-30.800625 -0.2209375 -30.800625 -0.2209375 -32 0 C-31.67 -0.99 -31.34 -1.98 -31 -3 C-20.33959539 -6.5534682 -9.78913379 -5.52207547 0 0 Z " fill="#879C1B" transform="translate(510,189)"/>
<path d="M0 0 C-8.261959 4.59225513 -8.261959 4.59225513 -13 4 C-13 4.66 -13 5.32 -13 6 C-14.65 6.33 -16.3 6.66 -18 7 C-17.67 7.66 -17.34 8.32 -17 9 C-16.67 10.32 -16.34 11.64 -16 13 C-18.31 11.35 -20.62 9.7 -23 8 C-22.67 7.01 -22.34 6.02 -22 5 C-19.015625 3.90234375 -19.015625 3.90234375 -15.25 2.9375 C-10.15676074 1.62897629 -10.15676074 1.62897629 -5.234375 -0.18359375 C-3 -1 -3 -1 0 0 Z " fill="#A5BE23" transform="translate(231,127)"/>
<path d="M0 0 C0.99 0.33 1.98 0.66 3 1 C2.01 1.495 2.01 1.495 1 2 C1.020625 3.258125 1.04125 4.51625 1.0625 5.8125 C1.10886083 8.64051087 0.91692961 10.24921116 0 13 C-0.99 13 -1.98 13 -3 13 C-3 12.34 -3 11.68 -3 11 C-3.66 11 -4.32 11 -5 11 C-5.875 8.3125 -5.875 8.3125 -6 5 C-4.22557447 2.64203856 -2.56330557 1.62671315 0 0 Z " fill="#C5F009" transform="translate(475,232)"/>
<path d="M0 0 C4.54769574 4.10184322 5.73965499 9.18827393 6.29296875 15.1640625 C6.46381357 22.11175185 5.61606888 27.56883068 3 34 C1.63578969 31.27157939 2.12192789 29.39046682 2.4375 26.375 C2.53933594 25.37210938 2.64117188 24.36921875 2.74609375 23.3359375 C2.87177734 22.17964844 2.87177734 22.17964844 3 21 C3.66 21 4.32 21 5 21 C4.34 16.05 3.68 11.1 3 6 C2.34 6 1.68 6 1 6 C0.67 4.02 0.34 2.04 0 0 Z " fill="#93AB18" transform="translate(518,199)"/>
<path d="M0 0 C2 2 2 2 2 6 C2.66 6 3.32 6 4 6 C4.33 8.64 4.66 11.28 5 14 C3 12 3 12 2 9 C-0.31 9 -2.62 9 -5 9 C-4.125 3.25 -4.125 3.25 -3 1 C-2.01 0.67 -1.02 0.34 0 0 Z " fill="#C5ED09" transform="translate(517,199)"/>
<path d="M0 0 C2.97 0 5.94 0 9 0 C9 0.66 9 1.32 9 2 C11.35441716 1.85758352 13.70847484 1.71115192 16.0625 1.5625 C17.37347656 1.48128906 18.68445313 1.40007812 20.03515625 1.31640625 C23.73663238 1.02101751 27.33370448 0.56734612 31 0 C23.95542189 4.69638541 16.24952926 4.69928442 8 4 C5.09523295 3.24996313 2.7276926 2.28362005 0 1 C0 0.67 0 0.34 0 0 Z " fill="#7B9418" transform="translate(475,247)"/>
<path d="M0 0 C0.33 1.32 0.66 2.64 1 4 C0.34 4 -0.32 4 -1 4 C-0.67 8.62 -0.34 13.24 0 18 C1.65 18 3.3 18 5 18 C5 19.32 5 20.64 5 22 C1.26326527 21.06581632 0.02442236 20.03149199 -2.375 16.9375 C-4.62072403 12.59152395 -4.2868373 8.62903975 -3 4 C-1.4375 1.4375 -1.4375 1.4375 0 0 Z " fill="#A8C023" transform="translate(152,129)"/>
<path d="M0 0 C3.95819611 -0.08678303 7.91614934 -0.14031733 11.875 -0.1875 C13.00292969 -0.21263672 14.13085938 -0.23777344 15.29296875 -0.26367188 C16.36933594 -0.27333984 17.44570312 -0.28300781 18.5546875 -0.29296875 C20.04718018 -0.31653442 20.04718018 -0.31653442 21.56982422 -0.34057617 C22.37178223 -0.22818604 23.17374023 -0.1157959 24 0 C26.18719033 3.28078549 26.21791927 3.80590051 25.75 7.5 C25.66234375 8.2734375 25.5746875 9.046875 25.484375 9.84375 C25 12 25 12 23 15 C23.01160156 14.37351563 23.02320313 13.74703125 23.03515625 13.1015625 C23.04417969 12.28429687 23.05320313 11.46703125 23.0625 10.625 C23.07410156 9.81289062 23.08570313 9.00078125 23.09765625 8.1640625 C23.14466334 5.95062858 23.14466334 5.95062858 22 4 C22.33 3.01 22.66 2.02 23 1 C15.41 1 7.82 1 0 1 C0 0.67 0 0.34 0 0 Z " fill="#748C0F" transform="translate(114,134)"/>
<path d="M0 0 C0.6875 2.8125 0.6875 2.8125 1 6 C0.01 6.99 -0.98 7.98 -2 9 C-4.64 7.02 -7.28 5.04 -10 3 C-9.67 2.34 -9.34 1.68 -9 1 C-5.85554549 0.15014743 -3.29227921 0 0 0 Z " fill="#A7C01A" transform="translate(237,150)"/>
<path d="M0 0 C0 0.66 0 1.32 0 2 C1.98 1.67 3.96 1.34 6 1 C3.85940629 3.35465308 2.04152693 4.98615769 -1 6 C-4.75 5.625 -4.75 5.625 -8 5 C-8.33 4.01 -8.66 3.02 -9 2 C-3 0 -3 0 0 0 Z " fill="#C9ED14" transform="translate(186,185)"/>
<path d="M0 0 C2.09375 -0.328125 2.09375 -0.328125 4.5 -0.25 C5.69109375 -0.22679688 5.69109375 -0.22679688 6.90625 -0.203125 C9 0 9 0 11 1 C10.67 1.66 10.34 2.32 10 3 C7.03 3 4.06 3 1 3 C0.67 5.97 0.34 8.94 0 12 C-0.66 12 -1.32 12 -2 12 C-2.05422947 10.5629191 -2.09289723 9.12524538 -2.125 7.6875 C-2.14820312 6.88699219 -2.17140625 6.08648437 -2.1953125 5.26171875 C-2 3 -2 3 0 0 Z " fill="#9AB126" transform="translate(103,122)"/>
<path d="M0 0 C0.66 0 1.32 0 2 0 C2 0.66 2 1.32 2 2 C3.32 1.67 4.64 1.34 6 1 C5 4 5 4 2.3125 5.6875 C-1.13047772 7.05169872 -3.33969311 7.41594396 -7 7 C-7.66 6.34 -8.32 5.68 -9 5 C-4.545 4.505 -4.545 4.505 0 4 C0 2.68 0 1.36 0 0 Z " fill="#A9C31F" transform="translate(166,146)"/>
<path d="M0 0 C1.98 0.495 1.98 0.495 4 1 C4.144375 2.093125 4.28875 3.18625 4.4375 4.3125 C4.88288104 7.93122987 4.88288104 7.93122987 6 11 C4.35 11 2.7 11 1 11 C1.66 10.34 2.32 9.68 3 9 C2.319375 8.2575 1.63875 7.515 0.9375 6.75 C-1 4 -1 4 -0.75 1.6875 C-0.5025 1.130625 -0.255 0.57375 0 0 Z " fill="#A0C014" transform="translate(494,225)"/>
<path d="M0 0 C2.97 0 5.94 0 9 0 C9.33 0.99 9.66 1.98 10 3 C9.34 3 8.68 3 8 3 C8 3.66 8 4.32 8 5 C8.66 5 9.32 5 10 5 C11.35439668 7.70879335 11.06501451 10.00933268 11 13 C9.80076369 11.20114553 8.64017165 9.37421156 7.5625 7.5 C5.40329315 4.04526905 3.39113583 2.26075722 0 0 Z " fill="#A1BE15" transform="translate(498,200)"/>
<path d="M0 0 C2.33333333 2.33333333 4.66666667 4.66666667 7 7 C7 7.99 7 8.98 7 10 C1.72 10 -3.56 10 -9 10 C-9 9.67 -9 9.34 -9 9 C-4.71 9 -0.42 9 4 9 C4 8.34 4 7.68 4 7 C3.34 7 2.68 7 2 7 C1.34 4.69 0.68 2.38 0 0 Z " fill="#778B14" transform="translate(519,240)"/>
<path d="M0 0 C0.66 0 1.32 0 2 0 C2.33 0.66 2.66 1.32 3 2 C5.8159849 2.46898963 5.8159849 2.46898963 9.0625 2.625 C10.71958984 2.73714844 10.71958984 2.73714844 12.41015625 2.8515625 C13.26480469 2.90054688 14.11945312 2.94953125 15 3 C15 3.66 15 4.32 15 5 C12.91731407 5.08126087 10.83371342 5.13930839 8.75 5.1875 C7.00976562 5.23970703 7.00976562 5.23970703 5.234375 5.29296875 C1.77731593 4.97982934 0.48434437 4.34290892 -2 2 C-1.34 1.34 -0.68 0.68 0 0 Z " fill="#B9D720" transform="translate(508,244)"/>
<path d="M0 0 C0.6875 1.8125 0.6875 1.8125 1 4 C-0.3125 5.75 -0.3125 5.75 -2 7 C-2.66 7 -3.32 7 -4 7 C-4 7.99 -4 8.98 -4 10 C-5.53125 11.38671875 -5.53125 11.38671875 -7.5 12.6875 C-8.47453125 13.34298828 -8.47453125 13.34298828 -9.46875 14.01171875 C-9.9740625 14.33785156 -10.479375 14.66398438 -11 15 C-11.66 14.67 -12.32 14.34 -13 14 C-12.319375 13.319375 -11.63875 12.63875 -10.9375 11.9375 C-10.48761719 11.48632812 -10.03773438 11.03515625 -9.57421875 10.5703125 C-8.43607014 9.43498808 -7.29208825 8.30550131 -6.14453125 7.1796875 C-5.51933594 6.56351563 -4.89414063 5.94734375 -4.25 5.3125 C-3.65703125 4.73113281 -3.0640625 4.14976562 -2.453125 3.55078125 C-0.90358196 2.04486026 -0.90358196 2.04486026 0 0 Z " fill="#A7BE28" transform="translate(215,140)"/>
<path d="M0 0 C1.80937684 3.61875369 0.48774807 7.52127172 -0.73828125 11.23828125 C-1.46235843 13.17029761 -2.22794648 15.08664997 -3 17 C-3.66 17 -4.32 17 -5 17 C-3.58823529 3.58823529 -3.58823529 3.58823529 0 0 Z " fill="#B6E211" transform="translate(513,200)"/>
<path d="M0 0 C0 0.99 0 1.98 0 3 C-0.73605469 2.98839844 -1.47210938 2.97679687 -2.23046875 2.96484375 C-3.20628906 2.95582031 -4.18210937 2.94679687 -5.1875 2.9375 C-6.15042969 2.92589844 -7.11335938 2.91429687 -8.10546875 2.90234375 C-10.85576513 2.99513378 -13.32479591 3.37888315 -16 4 C-14 1 -14 1 -11.7578125 0.48828125 C-10.45457031 0.40126953 -10.45457031 0.40126953 -9.125 0.3125 C-8.26132812 0.24675781 -7.39765625 0.18101562 -6.5078125 0.11328125 C-4.34042314 0.01537737 -2.16959946 0 0 0 Z " fill="#879C1D" transform="translate(498,197)"/>
<path d="M0 0 C0 0.99 0 1.98 0 3 C-3.96 4.98 -3.96 4.98 -8 7 C-8 5.02 -8 3.04 -8 1 C-2.25 0 -2.25 0 0 0 Z " fill="#C6F002" transform="translate(159,133)"/>
<path d="M0 0 C-0.99 0.66 -1.98 1.32 -3 2 C-3 1.34 -3 0.68 -3 0 C-5.29239061 0.08678763 -7.5839807 0.19495273 -9.875 0.3125 C-11.15117187 0.37050781 -12.42734375 0.42851562 -13.7421875 0.48828125 C-14.81726563 0.65714844 -15.89234375 0.82601562 -17 1 C-17.99 2.485 -17.99 2.485 -19 4 C-19.66 3.67 -20.32 3.34 -21 3 C-19.96875 1.0546875 -19.96875 1.0546875 -18 -1 C-15.36696577 -1.51593238 -13.14579553 -1.78428701 -10.5 -1.875 C-9.48486328 -1.94460937 -9.48486328 -1.94460937 -8.44921875 -2.015625 C-4.68602347 -2.20860937 -3.21945108 -2.14630072 0 0 Z " fill="#C1C1C1" transform="translate(396,204)"/>
<path d="M0 0 C1.65 0 3.3 0 5 0 C4.34 1.32 3.68 2.64 3 4 C2.34 4 1.68 4 1 4 C0.34 5.32 -0.32 6.64 -1 8 C-1.66 6.68 -2.32 5.36 -3 4 C-2.34 3.67 -1.68 3.34 -1 3 C-0.67 2.01 -0.34 1.02 0 0 Z " fill="#A6C31D" transform="translate(203,169)"/>
<path d="M0 0 C0.66 0 1.32 0 2 0 C2.125 6.625 2.125 6.625 1 10 C-0.65 9.67 -2.3 9.34 -4 9 C-4 8.34 -4 7.68 -4 7 C-3.01 6.67 -2.02 6.34 -1 6 C-0.67 4.02 -0.34 2.04 0 0 Z " fill="#CBED1B" transform="translate(111,147)"/>
<path d="M0 0 C2.97 0.495 2.97 0.495 6 1 C6 1.99 6 2.98 6 4 C7.32 3.67 8.64 3.34 10 3 C10 3.99 10 4.98 10 6 C8.68 6.33 7.36 6.66 6 7 C4.02 4.69 2.04 2.38 0 0 Z " fill="#A4C01E" transform="translate(157,181)"/>
<path d="M0 0 C0.66 0.33 1.32 0.66 2 1 C1 4 1 4 -1 5 C-1.72693904 6.97888961 -2.39816251 8.97954558 -3 11 C-3.99 10.34 -4.98 9.68 -6 9 C-4.68775452 5.06326356 -3.08089673 2.77280706 0 0 Z " fill="#94AF12" transform="translate(188,168)"/>
<path d="M0 0 C0.33 0 0.66 0 1 0 C1.02688151 1.64574566 1.04634123 3.29161413 1.0625 4.9375 C1.07410156 5.85402344 1.08570312 6.77054688 1.09765625 7.71484375 C1 10 1 10 0 11 C-1.68183948 11.23287008 -3.3712416 11.41264166 -5.0625 11.5625 C-5.98160156 11.64628906 -6.90070313 11.73007813 -7.84765625 11.81640625 C-8.55792969 11.87699219 -9.26820312 11.93757812 -10 12 C-10 11.01 -10 10.02 -10 9 C-7.03 9.33 -4.06 9.66 -1 10 C-0.67 6.7 -0.34 3.4 0 0 Z " fill="#7A8C17" transform="translate(113,147)"/>
<path d="M0 0 C-5.5825192 3.32575612 -9.49686791 4.46450943 -16 4 C-13.21769572 2.14513048 -11.15636393 1.27537888 -8 0.3125 C-6.700625 -0.09548828 -6.700625 -0.09548828 -5.375 -0.51171875 C-3 -1 -3 -1 0 0 Z " fill="#8A9F21" transform="translate(231,127)"/>
<path d="M0 0 C2.5 1.8125 2.5 1.8125 5 4 C5 4.99 5 5.98 5 7 C3.35 7 1.7 7 0 7 C-1.125 2.25 -1.125 2.25 0 0 Z " fill="#C5EF04" transform="translate(516,240)"/>
<path d="M0 0 C1.98 0 3.96 0 6 0 C4.77065985 3.68802044 3.06140622 4.72356973 0 7 C0 5.68 0 4.36 0 3 C-0.66 2.67 -1.32 2.34 -2 2 C-1.34 2 -0.68 2 0 2 C0 1.34 0 0.68 0 0 Z " fill="#A2BF15" transform="translate(218,153)"/>
<path d="M0 0 C2.475 0.495 2.475 0.495 5 1 C5.66 2.98 6.32 4.96 7 7 C7.66 7 8.32 7 9 7 C8.67 7.66 8.34 8.32 8 9 C6.84775972 8.07038578 5.70340824 7.1309875 4.5625 6.1875 C3.60537109 5.40439453 3.60537109 5.40439453 2.62890625 4.60546875 C1 3 1 3 0 0 Z " fill="#97AD1E" transform="translate(463,236)"/>
<path d="M0 0 C0.66 0 1.32 0 2 0 C2 3.63 2 7.26 2 11 C1.34 11 0.68 11 0 11 C-1.28571429 3.57142857 -1.28571429 3.57142857 0 0 Z " fill="#A8C02B" transform="translate(437,187)"/>
<path d="M0 0 C-0.33 0.66 -0.66 1.32 -1 2 C-3.28515625 2.6328125 -3.28515625 2.6328125 -6.0625 3.125 C-6.98160156 3.29257813 -7.90070313 3.46015625 -8.84765625 3.6328125 C-9.91306641 3.81457031 -9.91306641 3.81457031 -11 4 C-10.67 3.01 -10.34 2.02 -10 1 C-6.52674819 -0.1577506 -3.63932552 -0.06866652 0 0 Z " fill="#98B01E" transform="translate(489,185)"/>
<path d="M0 0 C0.99 0.33 1.98 0.66 3 1 C2.01 1.495 2.01 1.495 1 2 C1 2.99 1 3.98 1 5 C0.34 5 -0.32 5 -1 5 C-1 6.98 -1 8.96 -1 11 C-1.66 10.67 -2.32 10.34 -3 10 C-2.25 3.375 -2.25 3.375 0 0 Z " fill="#9FB422" transform="translate(94,134)"/>
<path d="M0 0 C-0.66 0.66 -1.32 1.32 -2 2 C-2.99 1.67 -3.98 1.34 -5 1 C-5.66 2.32 -6.32 3.64 -7 5 C-8.32 4.34 -9.64 3.68 -11 3 C-7.16674383 0.29417212 -4.67461851 -0.32613618 0 0 Z M-11 5 C-10.01 5 -9.02 5 -8 5 C-8.33 5.66 -8.66 6.32 -9 7 C-9.66 6.34 -10.32 5.68 -11 5 Z " fill="#9DB91C" transform="translate(165,125)"/>
<path d="M0 0 C2.31 0.66 4.62 1.32 7 2 C7.33 3.98 7.66 5.96 8 8 C6.85073734 7.04578192 5.70569459 6.08647955 4.5625 5.125 C3.92441406 4.59132812 3.28632813 4.05765625 2.62890625 3.5078125 C1 2 1 2 0 0 Z " fill="#879F1B" transform="translate(149,173)"/>
<path d="M0 0 C1.051875 0.680625 1.051875 0.680625 2.125 1.375 C5.02984591 3.01686943 7.8139348 4.03677099 11 5 C7.92859432 5.91004613 5.20100846 6.33694826 2 6 C0 3 0 3 0 0 Z " fill="#93AA1E" transform="translate(478,231)"/>
<path d="M0 0 C-0.66 1.98 -1.32 3.96 -2 6 C-2.66 4.68 -3.32 3.36 -4 2 C-4.66 2 -5.32 2 -6 2 C-6 1.34 -6 0.68 -6 0 C-3 -1 -3 -1 0 0 Z " fill="#C4ED06" transform="translate(512,203)"/>
<path d="M0 0 C0.86625 0.495 1.7325 0.99 2.625 1.5 C6.10749623 3.0477761 8.24759458 3.26802896 12 3 C11 5 11 5 8.8125 5.75 C5.41560571 6.05194616 3.14413009 5.24302818 0 4 C0 2.68 0 1.36 0 0 Z " fill="#88A01C" transform="translate(169,173)"/>
<path d="M0 0 C0.99 0.33 1.98 0.66 3 1 C2.1875 3.4375 2.1875 3.4375 1 6 C0.01 6.33 -0.98 6.66 -2 7 C-2.125 4.625 -2.125 4.625 -2 2 C-1.34 1.34 -0.68 0.68 0 0 Z " fill="#A5C61A" transform="translate(210,162)"/>
<path d="M0 0 C3.25 -0.3125 3.25 -0.3125 7 0 C9.4375 2.5 9.4375 2.5 11 5 C6.25 4.25 6.25 4.25 4 2 C2.68252676 1.30251417 1.35085807 0.63040043 0 0 Z " fill="#91AF1D" transform="translate(146,156)"/>
<path d="M0 0 C0.66 0.33 1.32 0.66 2 1 C1.34 2.98 0.68 4.96 0 7 C1.32 6.67 2.64 6.34 4 6 C4 6.66 4 7.32 4 8 C2.02 8 0.04 8 -2 8 C-2 6.02 -2 4.04 -2 2 C-1.34 2 -0.68 2 0 2 C0 1.34 0 0.68 0 0 Z " fill="#768A13" transform="translate(135,152)"/>
<path d="M0 0 C0.99 0.33 1.98 0.66 3 1 C3 1.66 3 2.32 3 3 C4.65 3 6.3 3 8 3 C8 4.32 8 5.64 8 7 C4.59679258 5.98823563 3.24274669 5.35156418 1.1875 2.375 C0.795625 1.59125 0.40375 0.8075 0 0 Z " fill="#9AB420" transform="translate(149,144)"/>
<path d="M0 0 C1.32 0 2.64 0 4 0 C3.67 0.99 3.34 1.98 3 3 C3.66 3.66 4.32 4.32 5 5 C4 6 4 6 0.9375 6.0625 C-0.5165625 6.0315625 -0.5165625 6.0315625 -2 6 C-1.34 5.67 -0.68 5.34 0 5 C0 3.35 0 1.7 0 0 Z " fill="#C8EB16" transform="translate(153,128)"/>
<path d="M0 0 C-6.75 4 -6.75 4 -9 4 C-8.3125 2.0625 -8.3125 2.0625 -7 0 C-4.12060581 -0.93580311 -2.74490212 -1.37245106 0 0 Z " fill="#9AB522" transform="translate(192,187)"/>
<path d="M0 0 C0.99 0.33 1.98 0.66 3 1 C2.67 2.65 2.34 4.3 2 6 C2.66 6.33 3.32 6.66 4 7 C2.68 7 1.36 7 0 7 C0 4.69 0 2.38 0 0 Z " fill="#C8E915" transform="translate(93,139)"/>
<path d="M0 0 C2.1387261 3.20808915 2.47730962 4.27698497 2 8 C1.01 8.66 0.02 9.32 -1 10 C-0.67 6.7 -0.34 3.4 0 0 Z " fill="#82961D" transform="translate(119,158)"/>
<path d="M0 0 C0.66 0 1.32 0 2 0 C2.3125 2.75 2.3125 2.75 2 6 C-0.5 8.375 -0.5 8.375 -3 10 C-3.33 9.34 -3.66 8.68 -4 8 C-3.34 8 -2.68 8 -2 8 C-1.67 7.01 -1.34 6.02 -1 5 C-0.34 5 0.32 5 1 5 C0.67 3.35 0.34 1.7 0 0 Z " fill="#C7EC17" transform="translate(215,139)"/>
<path d="M0 0 C0.33 0.66 0.66 1.32 1 2 C-4.41538462 3.23076923 -4.41538462 3.23076923 -7.375 2.0625 C-7.91125 1.711875 -8.4475 1.36125 -9 1 C-5.8035914 -0.06546953 -3.34252724 -0.07427838 0 0 Z " fill="#B6D71D" transform="translate(495,236)"/>
<path d="M0 0 C1.9375 0.375 1.9375 0.375 4 1 C5.35439668 3.70879335 5.06501451 6.00933268 5 9 C3.05731159 6.08596738 1.53604696 3.14191424 0 0 Z " fill="#92A919" transform="translate(504,204)"/>
<path d="M0 0 C0.99 0.33 1.98 0.66 3 1 C0.64722731 3.72426311 -1.62496331 4.8141763 -5 6 C-3.35 4.02 -1.7 2.04 0 0 Z " fill="#9CB121" transform="translate(197,159)"/>
</svg>
